G04 #@! TF.GenerationSoftware,KiCad,Pcbnew,5.1.9-73d0e3b20d~88~ubuntu20.10.1*
G04 #@! TF.CreationDate,2021-03-07T21:41:18+01:00*
G04 #@! TF.ProjectId,kosmo-spring-reverb-driver,6b6f736d-6f2d-4737-9072-696e672d7265,v1.0.1*
G04 #@! TF.SameCoordinates,Original*
G04 #@! TF.FileFunction,Legend,Bot*
G04 #@! TF.FilePolarity,Positive*
%FSLAX46Y46*%
G04 Gerber Fmt 4.6, Leading zero omitted, Abs format (unit mm)*
G04 Created by KiCad (PCBNEW 5.1.9-73d0e3b20d~88~ubuntu20.10.1) date 2021-03-07 21:41:18*
%MOMM*%
%LPD*%
G01*
G04 APERTURE LIST*
%ADD10C,0.200000*%
%ADD11C,0.300000*%
%ADD12C,0.120000*%
%ADD13C,0.100000*%
%ADD14C,0.150000*%
G04 APERTURE END LIST*
D10*
X117761904Y-82071428D02*
X117000000Y-82071428D01*
X116000000Y-82452380D02*
X116571428Y-82452380D01*
X116285714Y-82452380D02*
X116285714Y-81452380D01*
X116380952Y-81595238D01*
X116476190Y-81690476D01*
X116571428Y-81738095D01*
X115619047Y-81547619D02*
X115571428Y-81500000D01*
X115476190Y-81452380D01*
X115238095Y-81452380D01*
X115142857Y-81500000D01*
X115095238Y-81547619D01*
X115047619Y-81642857D01*
X115047619Y-81738095D01*
X115095238Y-81880952D01*
X115666666Y-82452380D01*
X115047619Y-82452380D01*
X114761904Y-81452380D02*
X114428571Y-82452380D01*
X114095238Y-81452380D01*
D11*
X126642857Y-57128571D02*
X126642857Y-55628571D01*
X125785714Y-57128571D02*
X126428571Y-56271428D01*
X125785714Y-55628571D02*
X126642857Y-56485714D01*
X124928571Y-57128571D02*
X125071428Y-57057142D01*
X125142857Y-56985714D01*
X125214285Y-56842857D01*
X125214285Y-56414285D01*
X125142857Y-56271428D01*
X125071428Y-56200000D01*
X124928571Y-56128571D01*
X124714285Y-56128571D01*
X124571428Y-56200000D01*
X124500000Y-56271428D01*
X124428571Y-56414285D01*
X124428571Y-56842857D01*
X124500000Y-56985714D01*
X124571428Y-57057142D01*
X124714285Y-57128571D01*
X124928571Y-57128571D01*
X123857142Y-57057142D02*
X123714285Y-57128571D01*
X123428571Y-57128571D01*
X123285714Y-57057142D01*
X123214285Y-56914285D01*
X123214285Y-56842857D01*
X123285714Y-56700000D01*
X123428571Y-56628571D01*
X123642857Y-56628571D01*
X123785714Y-56557142D01*
X123857142Y-56414285D01*
X123857142Y-56342857D01*
X123785714Y-56200000D01*
X123642857Y-56128571D01*
X123428571Y-56128571D01*
X123285714Y-56200000D01*
X122571428Y-57128571D02*
X122571428Y-56128571D01*
X122571428Y-56271428D02*
X122500000Y-56200000D01*
X122357142Y-56128571D01*
X122142857Y-56128571D01*
X122000000Y-56200000D01*
X121928571Y-56342857D01*
X121928571Y-57128571D01*
X121928571Y-56342857D02*
X121857142Y-56200000D01*
X121714285Y-56128571D01*
X121500000Y-56128571D01*
X121357142Y-56200000D01*
X121285714Y-56342857D01*
X121285714Y-57128571D01*
X120357142Y-57128571D02*
X120500000Y-57057142D01*
X120571428Y-56985714D01*
X120642857Y-56842857D01*
X120642857Y-56414285D01*
X120571428Y-56271428D01*
X120500000Y-56200000D01*
X120357142Y-56128571D01*
X120142857Y-56128571D01*
X120000000Y-56200000D01*
X119928571Y-56271428D01*
X119857142Y-56414285D01*
X119857142Y-56842857D01*
X119928571Y-56985714D01*
X120000000Y-57057142D01*
X120142857Y-57128571D01*
X120357142Y-57128571D01*
X118142857Y-57057142D02*
X117928571Y-57128571D01*
X117571428Y-57128571D01*
X117428571Y-57057142D01*
X117357142Y-56985714D01*
X117285714Y-56842857D01*
X117285714Y-56700000D01*
X117357142Y-56557142D01*
X117428571Y-56485714D01*
X117571428Y-56414285D01*
X117857142Y-56342857D01*
X118000000Y-56271428D01*
X118071428Y-56200000D01*
X118142857Y-56057142D01*
X118142857Y-55914285D01*
X118071428Y-55771428D01*
X118000000Y-55700000D01*
X117857142Y-55628571D01*
X117500000Y-55628571D01*
X117285714Y-55700000D01*
X116642857Y-56128571D02*
X116642857Y-57628571D01*
X116642857Y-56200000D02*
X116500000Y-56128571D01*
X116214285Y-56128571D01*
X116071428Y-56200000D01*
X116000000Y-56271428D01*
X115928571Y-56414285D01*
X115928571Y-56842857D01*
X116000000Y-56985714D01*
X116071428Y-57057142D01*
X116214285Y-57128571D01*
X116500000Y-57128571D01*
X116642857Y-57057142D01*
X115285714Y-57128571D02*
X115285714Y-56128571D01*
X115285714Y-56414285D02*
X115214285Y-56271428D01*
X115142857Y-56200000D01*
X115000000Y-56128571D01*
X114857142Y-56128571D01*
X114357142Y-57128571D02*
X114357142Y-56128571D01*
X114357142Y-55628571D02*
X114428571Y-55700000D01*
X114357142Y-55771428D01*
X114285714Y-55700000D01*
X114357142Y-55628571D01*
X114357142Y-55771428D01*
X113642857Y-56128571D02*
X113642857Y-57128571D01*
X113642857Y-56271428D02*
X113571428Y-56200000D01*
X113428571Y-56128571D01*
X113214285Y-56128571D01*
X113071428Y-56200000D01*
X113000000Y-56342857D01*
X113000000Y-57128571D01*
X111642857Y-56128571D02*
X111642857Y-57342857D01*
X111714285Y-57485714D01*
X111785714Y-57557142D01*
X111928571Y-57628571D01*
X112142857Y-57628571D01*
X112285714Y-57557142D01*
X111642857Y-57057142D02*
X111785714Y-57128571D01*
X112071428Y-57128571D01*
X112214285Y-57057142D01*
X112285714Y-56985714D01*
X112357142Y-56842857D01*
X112357142Y-56414285D01*
X112285714Y-56271428D01*
X112214285Y-56200000D01*
X112071428Y-56128571D01*
X111785714Y-56128571D01*
X111642857Y-56200000D01*
X108928571Y-57128571D02*
X109428571Y-56414285D01*
X109785714Y-57128571D02*
X109785714Y-55628571D01*
X109214285Y-55628571D01*
X109071428Y-55700000D01*
X109000000Y-55771428D01*
X108928571Y-55914285D01*
X108928571Y-56128571D01*
X109000000Y-56271428D01*
X109071428Y-56342857D01*
X109214285Y-56414285D01*
X109785714Y-56414285D01*
X107714285Y-57057142D02*
X107857142Y-57128571D01*
X108142857Y-57128571D01*
X108285714Y-57057142D01*
X108357142Y-56914285D01*
X108357142Y-56342857D01*
X108285714Y-56200000D01*
X108142857Y-56128571D01*
X107857142Y-56128571D01*
X107714285Y-56200000D01*
X107642857Y-56342857D01*
X107642857Y-56485714D01*
X108357142Y-56628571D01*
X107142857Y-56128571D02*
X106785714Y-57128571D01*
X106428571Y-56128571D01*
X105285714Y-57057142D02*
X105428571Y-57128571D01*
X105714285Y-57128571D01*
X105857142Y-57057142D01*
X105928571Y-56914285D01*
X105928571Y-56342857D01*
X105857142Y-56200000D01*
X105714285Y-56128571D01*
X105428571Y-56128571D01*
X105285714Y-56200000D01*
X105214285Y-56342857D01*
X105214285Y-56485714D01*
X105928571Y-56628571D01*
X104571428Y-57128571D02*
X104571428Y-56128571D01*
X104571428Y-56414285D02*
X104500000Y-56271428D01*
X104428571Y-56200000D01*
X104285714Y-56128571D01*
X104142857Y-56128571D01*
X103642857Y-57128571D02*
X103642857Y-55628571D01*
X103642857Y-56200000D02*
X103500000Y-56128571D01*
X103214285Y-56128571D01*
X103071428Y-56200000D01*
X103000000Y-56271428D01*
X102928571Y-56414285D01*
X102928571Y-56842857D01*
X103000000Y-56985714D01*
X103071428Y-57057142D01*
X103214285Y-57128571D01*
X103500000Y-57128571D01*
X103642857Y-57057142D01*
X101142857Y-57128571D02*
X101142857Y-55628571D01*
X100785714Y-55628571D01*
X100571428Y-55700000D01*
X100428571Y-55842857D01*
X100357142Y-55985714D01*
X100285714Y-56271428D01*
X100285714Y-56485714D01*
X100357142Y-56771428D01*
X100428571Y-56914285D01*
X100571428Y-57057142D01*
X100785714Y-57128571D01*
X101142857Y-57128571D01*
X99642857Y-57128571D02*
X99642857Y-56128571D01*
X99642857Y-56414285D02*
X99571428Y-56271428D01*
X99500000Y-56200000D01*
X99357142Y-56128571D01*
X99214285Y-56128571D01*
X98714285Y-57128571D02*
X98714285Y-56128571D01*
X98714285Y-55628571D02*
X98785714Y-55700000D01*
X98714285Y-55771428D01*
X98642857Y-55700000D01*
X98714285Y-55628571D01*
X98714285Y-55771428D01*
X98142857Y-56128571D02*
X97785714Y-57128571D01*
X97428571Y-56128571D01*
X96285714Y-57057142D02*
X96428571Y-57128571D01*
X96714285Y-57128571D01*
X96857142Y-57057142D01*
X96928571Y-56914285D01*
X96928571Y-56342857D01*
X96857142Y-56200000D01*
X96714285Y-56128571D01*
X96428571Y-56128571D01*
X96285714Y-56200000D01*
X96214285Y-56342857D01*
X96214285Y-56485714D01*
X96928571Y-56628571D01*
X95571428Y-57128571D02*
X95571428Y-56128571D01*
X95571428Y-56414285D02*
X95499999Y-56271428D01*
X95428571Y-56200000D01*
X95285714Y-56128571D01*
X95142857Y-56128571D01*
X93642857Y-56128571D02*
X93285714Y-57128571D01*
X92928571Y-56128571D01*
X91571428Y-57128571D02*
X92428571Y-57128571D01*
X91999999Y-57128571D02*
X91999999Y-55628571D01*
X92142857Y-55842857D01*
X92285714Y-55985714D01*
X92428571Y-56057142D01*
X90928571Y-56985714D02*
X90857142Y-57057142D01*
X90928571Y-57128571D01*
X90999999Y-57057142D01*
X90928571Y-56985714D01*
X90928571Y-57128571D01*
X89928571Y-55628571D02*
X89785714Y-55628571D01*
X89642857Y-55700000D01*
X89571428Y-55771428D01*
X89499999Y-55914285D01*
X89428571Y-56200000D01*
X89428571Y-56557142D01*
X89499999Y-56842857D01*
X89571428Y-56985714D01*
X89642857Y-57057142D01*
X89785714Y-57128571D01*
X89928571Y-57128571D01*
X90071428Y-57057142D01*
X90142857Y-56985714D01*
X90214285Y-56842857D01*
X90285714Y-56557142D01*
X90285714Y-56200000D01*
X90214285Y-55914285D01*
X90142857Y-55771428D01*
X90071428Y-55700000D01*
X89928571Y-55628571D01*
X88785714Y-56985714D02*
X88714285Y-57057142D01*
X88785714Y-57128571D01*
X88857142Y-57057142D01*
X88785714Y-56985714D01*
X88785714Y-57128571D01*
X87285714Y-57128571D02*
X88142857Y-57128571D01*
X87714285Y-57128571D02*
X87714285Y-55628571D01*
X87857142Y-55842857D01*
X87999999Y-55985714D01*
X88142857Y-56057142D01*
X116392857Y-58178571D02*
X116392857Y-59250000D01*
X116464285Y-59464285D01*
X116607142Y-59607142D01*
X116821428Y-59678571D01*
X116964285Y-59678571D01*
X115035714Y-59678571D02*
X115035714Y-58892857D01*
X115107142Y-58750000D01*
X115250000Y-58678571D01*
X115535714Y-58678571D01*
X115678571Y-58750000D01*
X115035714Y-59607142D02*
X115178571Y-59678571D01*
X115535714Y-59678571D01*
X115678571Y-59607142D01*
X115750000Y-59464285D01*
X115750000Y-59321428D01*
X115678571Y-59178571D01*
X115535714Y-59107142D01*
X115178571Y-59107142D01*
X115035714Y-59035714D01*
X114321428Y-58678571D02*
X114321428Y-59678571D01*
X114321428Y-58821428D02*
X114250000Y-58750000D01*
X114107142Y-58678571D01*
X113892857Y-58678571D01*
X113750000Y-58750000D01*
X113678571Y-58892857D01*
X113678571Y-59678571D01*
X111821428Y-59678571D02*
X111821428Y-58178571D01*
X110964285Y-59678571D02*
X111607142Y-58821428D01*
X110964285Y-58178571D02*
X111821428Y-59035714D01*
X110321428Y-58678571D02*
X110321428Y-59678571D01*
X110321428Y-58821428D02*
X110250000Y-58750000D01*
X110107142Y-58678571D01*
X109892857Y-58678571D01*
X109750000Y-58750000D01*
X109678571Y-58892857D01*
X109678571Y-59678571D01*
X108964285Y-59678571D02*
X108964285Y-58678571D01*
X108964285Y-58178571D02*
X109035714Y-58250000D01*
X108964285Y-58321428D01*
X108892857Y-58250000D01*
X108964285Y-58178571D01*
X108964285Y-58321428D01*
X108250000Y-58678571D02*
X108250000Y-60178571D01*
X108250000Y-58750000D02*
X108107142Y-58678571D01*
X107821428Y-58678571D01*
X107678571Y-58750000D01*
X107607142Y-58821428D01*
X107535714Y-58964285D01*
X107535714Y-59392857D01*
X107607142Y-59535714D01*
X107678571Y-59607142D01*
X107821428Y-59678571D01*
X108107142Y-59678571D01*
X108250000Y-59607142D01*
X106892857Y-58678571D02*
X106892857Y-60178571D01*
X106892857Y-58750000D02*
X106750000Y-58678571D01*
X106464285Y-58678571D01*
X106321428Y-58750000D01*
X106250000Y-58821428D01*
X106178571Y-58964285D01*
X106178571Y-59392857D01*
X106250000Y-59535714D01*
X106321428Y-59607142D01*
X106464285Y-59678571D01*
X106750000Y-59678571D01*
X106892857Y-59607142D01*
X104964285Y-59607142D02*
X105107142Y-59678571D01*
X105392857Y-59678571D01*
X105535714Y-59607142D01*
X105607142Y-59464285D01*
X105607142Y-58892857D01*
X105535714Y-58750000D01*
X105392857Y-58678571D01*
X105107142Y-58678571D01*
X104964285Y-58750000D01*
X104892857Y-58892857D01*
X104892857Y-59035714D01*
X105607142Y-59178571D01*
X104250000Y-59678571D02*
X104250000Y-58678571D01*
X104250000Y-58964285D02*
X104178571Y-58821428D01*
X104107142Y-58750000D01*
X103964285Y-58678571D01*
X103821428Y-58678571D01*
X102250000Y-58321428D02*
X102178571Y-58250000D01*
X102035714Y-58178571D01*
X101678571Y-58178571D01*
X101535714Y-58250000D01*
X101464285Y-58321428D01*
X101392857Y-58464285D01*
X101392857Y-58607142D01*
X101464285Y-58821428D01*
X102321428Y-59678571D01*
X101392857Y-59678571D01*
X100464285Y-58178571D02*
X100321428Y-58178571D01*
X100178571Y-58250000D01*
X100107142Y-58321428D01*
X100035714Y-58464285D01*
X99964285Y-58750000D01*
X99964285Y-59107142D01*
X100035714Y-59392857D01*
X100107142Y-59535714D01*
X100178571Y-59607142D01*
X100321428Y-59678571D01*
X100464285Y-59678571D01*
X100607142Y-59607142D01*
X100678571Y-59535714D01*
X100750000Y-59392857D01*
X100821428Y-59107142D01*
X100821428Y-58750000D01*
X100750000Y-58464285D01*
X100678571Y-58321428D01*
X100607142Y-58250000D01*
X100464285Y-58178571D01*
X99392857Y-58321428D02*
X99321428Y-58250000D01*
X99178571Y-58178571D01*
X98821428Y-58178571D01*
X98678571Y-58250000D01*
X98607142Y-58321428D01*
X98535714Y-58464285D01*
X98535714Y-58607142D01*
X98607142Y-58821428D01*
X99464285Y-59678571D01*
X98535714Y-59678571D01*
X97107142Y-59678571D02*
X97964285Y-59678571D01*
X97535714Y-59678571D02*
X97535714Y-58178571D01*
X97678571Y-58392857D01*
X97821428Y-58535714D01*
X97964285Y-58607142D01*
X116678571Y-61228571D02*
X116678571Y-62442857D01*
X116750000Y-62585714D01*
X116821428Y-62657142D01*
X116964285Y-62728571D01*
X117178571Y-62728571D01*
X117321428Y-62657142D01*
X116678571Y-62157142D02*
X116821428Y-62228571D01*
X117107142Y-62228571D01*
X117250000Y-62157142D01*
X117321428Y-62085714D01*
X117392857Y-61942857D01*
X117392857Y-61514285D01*
X117321428Y-61371428D01*
X117250000Y-61300000D01*
X117107142Y-61228571D01*
X116821428Y-61228571D01*
X116678571Y-61300000D01*
X115964285Y-62228571D02*
X115964285Y-61228571D01*
X115964285Y-60728571D02*
X116035714Y-60800000D01*
X115964285Y-60871428D01*
X115892857Y-60800000D01*
X115964285Y-60728571D01*
X115964285Y-60871428D01*
X115464285Y-61228571D02*
X114892857Y-61228571D01*
X115250000Y-60728571D02*
X115250000Y-62014285D01*
X115178571Y-62157142D01*
X115035714Y-62228571D01*
X114892857Y-62228571D01*
X114392857Y-62228571D02*
X114392857Y-60728571D01*
X113750000Y-62228571D02*
X113750000Y-61442857D01*
X113821428Y-61300000D01*
X113964285Y-61228571D01*
X114178571Y-61228571D01*
X114321428Y-61300000D01*
X114392857Y-61371428D01*
X112392857Y-61228571D02*
X112392857Y-62228571D01*
X113035714Y-61228571D02*
X113035714Y-62014285D01*
X112964285Y-62157142D01*
X112821428Y-62228571D01*
X112607142Y-62228571D01*
X112464285Y-62157142D01*
X112392857Y-62085714D01*
X111678571Y-62228571D02*
X111678571Y-60728571D01*
X111678571Y-61300000D02*
X111535714Y-61228571D01*
X111250000Y-61228571D01*
X111107142Y-61300000D01*
X111035714Y-61371428D01*
X110964285Y-61514285D01*
X110964285Y-61942857D01*
X111035714Y-62085714D01*
X111107142Y-62157142D01*
X111250000Y-62228571D01*
X111535714Y-62228571D01*
X111678571Y-62157142D01*
X110321428Y-62085714D02*
X110250000Y-62157142D01*
X110321428Y-62228571D01*
X110392857Y-62157142D01*
X110321428Y-62085714D01*
X110321428Y-62228571D01*
X108964285Y-62157142D02*
X109107142Y-62228571D01*
X109392857Y-62228571D01*
X109535714Y-62157142D01*
X109607142Y-62085714D01*
X109678571Y-61942857D01*
X109678571Y-61514285D01*
X109607142Y-61371428D01*
X109535714Y-61300000D01*
X109392857Y-61228571D01*
X109107142Y-61228571D01*
X108964285Y-61300000D01*
X108107142Y-62228571D02*
X108250000Y-62157142D01*
X108321428Y-62085714D01*
X108392857Y-61942857D01*
X108392857Y-61514285D01*
X108321428Y-61371428D01*
X108250000Y-61300000D01*
X108107142Y-61228571D01*
X107892857Y-61228571D01*
X107750000Y-61300000D01*
X107678571Y-61371428D01*
X107607142Y-61514285D01*
X107607142Y-61942857D01*
X107678571Y-62085714D01*
X107750000Y-62157142D01*
X107892857Y-62228571D01*
X108107142Y-62228571D01*
X106964285Y-62228571D02*
X106964285Y-61228571D01*
X106964285Y-61371428D02*
X106892857Y-61300000D01*
X106750000Y-61228571D01*
X106535714Y-61228571D01*
X106392857Y-61300000D01*
X106321428Y-61442857D01*
X106321428Y-62228571D01*
X106321428Y-61442857D02*
X106250000Y-61300000D01*
X106107142Y-61228571D01*
X105892857Y-61228571D01*
X105750000Y-61300000D01*
X105678571Y-61442857D01*
X105678571Y-62228571D01*
X103892857Y-60657142D02*
X105178571Y-62585714D01*
X103392857Y-61228571D02*
X103392857Y-62728571D01*
X103392857Y-61300000D02*
X103250000Y-61228571D01*
X102964285Y-61228571D01*
X102821428Y-61300000D01*
X102750000Y-61371428D01*
X102678571Y-61514285D01*
X102678571Y-61942857D01*
X102750000Y-62085714D01*
X102821428Y-62157142D01*
X102964285Y-62228571D01*
X103250000Y-62228571D01*
X103392857Y-62157142D01*
X101821428Y-62228571D02*
X101964285Y-62157142D01*
X102035714Y-62085714D01*
X102107142Y-61942857D01*
X102107142Y-61514285D01*
X102035714Y-61371428D01*
X101964285Y-61300000D01*
X101821428Y-61228571D01*
X101607142Y-61228571D01*
X101464285Y-61300000D01*
X101392857Y-61371428D01*
X101321428Y-61514285D01*
X101321428Y-61942857D01*
X101392857Y-62085714D01*
X101464285Y-62157142D01*
X101607142Y-62228571D01*
X101821428Y-62228571D01*
X100464285Y-62228571D02*
X100607142Y-62157142D01*
X100678571Y-62014285D01*
X100678571Y-60728571D01*
X100035714Y-61228571D02*
X99678571Y-62228571D01*
X99321428Y-61228571D02*
X99678571Y-62228571D01*
X99821428Y-62585714D01*
X99892857Y-62657142D01*
X100035714Y-62728571D01*
X98750000Y-62228571D02*
X98750000Y-60728571D01*
X98607142Y-61657142D02*
X98178571Y-62228571D01*
X98178571Y-61228571D02*
X98750000Y-61800000D01*
X97535714Y-62228571D02*
X97535714Y-61228571D01*
X97535714Y-60728571D02*
X97607142Y-60800000D01*
X97535714Y-60871428D01*
X97464285Y-60800000D01*
X97535714Y-60728571D01*
X97535714Y-60871428D01*
X97035714Y-61228571D02*
X96464285Y-61228571D01*
X96821428Y-60728571D02*
X96821428Y-62014285D01*
X96750000Y-62157142D01*
X96607142Y-62228571D01*
X96464285Y-62228571D01*
D10*
X83178571Y-202071428D02*
X84250000Y-202071428D01*
X84464285Y-202000000D01*
X84607142Y-201857142D01*
X84678571Y-201642857D01*
X84678571Y-201500000D01*
X84678571Y-203500000D02*
X84678571Y-202785714D01*
X83178571Y-202785714D01*
X84535714Y-204857142D02*
X84607142Y-204785714D01*
X84678571Y-204571428D01*
X84678571Y-204428571D01*
X84607142Y-204214285D01*
X84464285Y-204071428D01*
X84321428Y-204000000D01*
X84035714Y-203928571D01*
X83821428Y-203928571D01*
X83535714Y-204000000D01*
X83392857Y-204071428D01*
X83250000Y-204214285D01*
X83178571Y-204428571D01*
X83178571Y-204571428D01*
X83250000Y-204785714D01*
X83321428Y-204857142D01*
X83178571Y-205928571D02*
X84250000Y-205928571D01*
X84464285Y-205857142D01*
X84607142Y-205714285D01*
X84678571Y-205500000D01*
X84678571Y-205357142D01*
X84678571Y-207357142D02*
X84678571Y-206642857D01*
X83178571Y-206642857D01*
X84535714Y-208714285D02*
X84607142Y-208642857D01*
X84678571Y-208428571D01*
X84678571Y-208285714D01*
X84607142Y-208071428D01*
X84464285Y-207928571D01*
X84321428Y-207857142D01*
X84035714Y-207785714D01*
X83821428Y-207785714D01*
X83535714Y-207857142D01*
X83392857Y-207928571D01*
X83250000Y-208071428D01*
X83178571Y-208285714D01*
X83178571Y-208428571D01*
X83250000Y-208642857D01*
X83321428Y-208714285D01*
X83178571Y-209785714D02*
X84250000Y-209785714D01*
X84464285Y-209714285D01*
X84607142Y-209571428D01*
X84678571Y-209357142D01*
X84678571Y-209214285D01*
X84678571Y-211214285D02*
X84678571Y-210500000D01*
X83178571Y-210500000D01*
X84535714Y-212571428D02*
X84607142Y-212500000D01*
X84678571Y-212285714D01*
X84678571Y-212142857D01*
X84607142Y-211928571D01*
X84464285Y-211785714D01*
X84321428Y-211714285D01*
X84035714Y-211642857D01*
X83821428Y-211642857D01*
X83535714Y-211714285D01*
X83392857Y-211785714D01*
X83250000Y-211928571D01*
X83178571Y-212142857D01*
X83178571Y-212285714D01*
X83250000Y-212500000D01*
X83321428Y-212571428D01*
X83178571Y-213642857D02*
X84250000Y-213642857D01*
X84464285Y-213571428D01*
X84607142Y-213428571D01*
X84678571Y-213214285D01*
X84678571Y-213071428D01*
X84678571Y-215071428D02*
X84678571Y-214357142D01*
X83178571Y-214357142D01*
X84535714Y-216428571D02*
X84607142Y-216357142D01*
X84678571Y-216142857D01*
X84678571Y-216000000D01*
X84607142Y-215785714D01*
X84464285Y-215642857D01*
X84321428Y-215571428D01*
X84035714Y-215500000D01*
X83821428Y-215500000D01*
X83535714Y-215571428D01*
X83392857Y-215642857D01*
X83250000Y-215785714D01*
X83178571Y-216000000D01*
X83178571Y-216142857D01*
X83250000Y-216357142D01*
X83321428Y-216428571D01*
D12*
X122620000Y-162030000D02*
X122620000Y-156010000D01*
X122620000Y-156010000D02*
X127920000Y-156010000D01*
X127920000Y-156010000D02*
X127920000Y-162030000D01*
X127920000Y-162030000D02*
X122620000Y-162030000D01*
X122330000Y-161000000D02*
X122330000Y-157000000D01*
X124000000Y-156010000D02*
X124000000Y-157010000D01*
X124000000Y-157010000D02*
X126540000Y-157010000D01*
X126540000Y-157010000D02*
X126540000Y-156010000D01*
X124000000Y-157010000D02*
X124250000Y-157540000D01*
X124250000Y-157540000D02*
X126290000Y-157540000D01*
X126290000Y-157540000D02*
X126540000Y-157010000D01*
X124250000Y-156010000D02*
X124250000Y-157010000D01*
X126290000Y-156010000D02*
X126290000Y-157010000D01*
X123200000Y-162030000D02*
X123200000Y-161430000D01*
X123200000Y-161430000D02*
X124800000Y-161430000D01*
X124800000Y-161430000D02*
X124800000Y-162030000D01*
X125740000Y-162030000D02*
X125740000Y-161430000D01*
X125740000Y-161430000D02*
X127340000Y-161430000D01*
X127340000Y-161430000D02*
X127340000Y-162030000D01*
X122620000Y-172030000D02*
X122620000Y-166010000D01*
X122620000Y-166010000D02*
X127920000Y-166010000D01*
X127920000Y-166010000D02*
X127920000Y-172030000D01*
X127920000Y-172030000D02*
X122620000Y-172030000D01*
X122330000Y-171000000D02*
X122330000Y-167000000D01*
X124000000Y-166010000D02*
X124000000Y-167010000D01*
X124000000Y-167010000D02*
X126540000Y-167010000D01*
X126540000Y-167010000D02*
X126540000Y-166010000D01*
X124000000Y-167010000D02*
X124250000Y-167540000D01*
X124250000Y-167540000D02*
X126290000Y-167540000D01*
X126290000Y-167540000D02*
X126540000Y-167010000D01*
X124250000Y-166010000D02*
X124250000Y-167010000D01*
X126290000Y-166010000D02*
X126290000Y-167010000D01*
X123200000Y-172030000D02*
X123200000Y-171430000D01*
X123200000Y-171430000D02*
X124800000Y-171430000D01*
X124800000Y-171430000D02*
X124800000Y-172030000D01*
X125740000Y-172030000D02*
X125740000Y-171430000D01*
X125740000Y-171430000D02*
X127340000Y-171430000D01*
X127340000Y-171430000D02*
X127340000Y-172030000D01*
X119710000Y-87210000D02*
X128830000Y-87210000D01*
X128830000Y-87210000D02*
X128830000Y-66630000D01*
X128830000Y-66630000D02*
X119710000Y-66630000D01*
X119710000Y-66630000D02*
X119710000Y-87210000D01*
X119710000Y-78970000D02*
X121020000Y-78970000D01*
X121020000Y-78970000D02*
X121020000Y-85910000D01*
X121020000Y-85910000D02*
X127520000Y-85910000D01*
X127520000Y-85910000D02*
X127520000Y-67930000D01*
X127520000Y-67930000D02*
X121020000Y-67930000D01*
X121020000Y-67930000D02*
X121020000Y-74870000D01*
X121020000Y-74870000D02*
X121020000Y-74870000D01*
X121020000Y-74870000D02*
X119710000Y-74870000D01*
X119320000Y-82000000D02*
X118320000Y-82500000D01*
X118320000Y-82500000D02*
X118320000Y-81500000D01*
X118320000Y-81500000D02*
X119320000Y-82000000D01*
D13*
G36*
X118900000Y-198300000D02*
G01*
X121100000Y-198300000D01*
X121100000Y-200100000D01*
X118900000Y-200100000D01*
X118900000Y-198300000D01*
G37*
X118900000Y-198300000D02*
X121100000Y-198300000D01*
X121100000Y-200100000D01*
X118900000Y-200100000D01*
X118900000Y-198300000D01*
D14*
X121300000Y-200300000D02*
X121300000Y-198300000D01*
X117500000Y-216500000D02*
X113500000Y-212500000D01*
X116200000Y-200300000D02*
X116200000Y-198300000D01*
X121100000Y-200300000D02*
X116200000Y-200300000D01*
D13*
G36*
X124000000Y-198300000D02*
G01*
X126200000Y-198300000D01*
X126200000Y-200100000D01*
X124000000Y-200100000D01*
X124000000Y-198300000D01*
G37*
X124000000Y-198300000D02*
X126200000Y-198300000D01*
X126200000Y-200100000D01*
X124000000Y-200100000D01*
X124000000Y-198300000D01*
D14*
X126200000Y-200300000D02*
X121300000Y-200300000D01*
D13*
G36*
X90900000Y-198300000D02*
G01*
X93100000Y-198300000D01*
X93100000Y-200100000D01*
X90900000Y-200100000D01*
X90900000Y-198300000D01*
G37*
X90900000Y-198300000D02*
X93100000Y-198300000D01*
X93100000Y-200100000D01*
X90900000Y-200100000D01*
X90900000Y-198300000D01*
D14*
X93300000Y-200300000D02*
X93300000Y-198300000D01*
X89500000Y-216500000D02*
X85500000Y-212500000D01*
X88200000Y-200300000D02*
X88200000Y-198300000D01*
X93100000Y-200300000D02*
X88200000Y-200300000D01*
D13*
G36*
X96000000Y-198300000D02*
G01*
X98200000Y-198300000D01*
X98200000Y-200100000D01*
X96000000Y-200100000D01*
X96000000Y-198300000D01*
G37*
X96000000Y-198300000D02*
X98200000Y-198300000D01*
X98200000Y-200100000D01*
X96000000Y-200100000D01*
X96000000Y-198300000D01*
D14*
X98200000Y-200300000D02*
X93300000Y-200300000D01*
X129579523Y-163572380D02*
X129912857Y-163096190D01*
X130150952Y-163572380D02*
X130150952Y-162572380D01*
X129770000Y-162572380D01*
X129674761Y-162620000D01*
X129627142Y-162667619D01*
X129579523Y-162762857D01*
X129579523Y-162905714D01*
X129627142Y-163000952D01*
X129674761Y-163048571D01*
X129770000Y-163096190D01*
X130150952Y-163096190D01*
X129150952Y-163048571D02*
X128817619Y-163048571D01*
X128674761Y-163572380D02*
X129150952Y-163572380D01*
X129150952Y-162572380D01*
X128674761Y-162572380D01*
X128389047Y-162572380D02*
X128055714Y-163572380D01*
X127722380Y-162572380D01*
X127389047Y-163048571D02*
X127055714Y-163048571D01*
X126912857Y-163572380D02*
X127389047Y-163572380D01*
X127389047Y-162572380D01*
X126912857Y-162572380D01*
X125912857Y-163572380D02*
X126246190Y-163096190D01*
X126484285Y-163572380D02*
X126484285Y-162572380D01*
X126103333Y-162572380D01*
X126008095Y-162620000D01*
X125960476Y-162667619D01*
X125912857Y-162762857D01*
X125912857Y-162905714D01*
X125960476Y-163000952D01*
X126008095Y-163048571D01*
X126103333Y-163096190D01*
X126484285Y-163096190D01*
X125150952Y-163048571D02*
X125008095Y-163096190D01*
X124960476Y-163143809D01*
X124912857Y-163239047D01*
X124912857Y-163381904D01*
X124960476Y-163477142D01*
X125008095Y-163524761D01*
X125103333Y-163572380D01*
X125484285Y-163572380D01*
X125484285Y-162572380D01*
X125150952Y-162572380D01*
X125055714Y-162620000D01*
X125008095Y-162667619D01*
X124960476Y-162762857D01*
X124960476Y-162858095D01*
X125008095Y-162953333D01*
X125055714Y-163000952D01*
X125150952Y-163048571D01*
X125484285Y-163048571D01*
X124722380Y-163667619D02*
X123960476Y-163667619D01*
X123531904Y-162572380D02*
X123341428Y-162572380D01*
X123246190Y-162620000D01*
X123150952Y-162715238D01*
X123103333Y-162905714D01*
X123103333Y-163239047D01*
X123150952Y-163429523D01*
X123246190Y-163524761D01*
X123341428Y-163572380D01*
X123531904Y-163572380D01*
X123627142Y-163524761D01*
X123722380Y-163429523D01*
X123770000Y-163239047D01*
X123770000Y-162905714D01*
X123722380Y-162715238D01*
X123627142Y-162620000D01*
X123531904Y-162572380D01*
X122674761Y-162572380D02*
X122674761Y-163381904D01*
X122627142Y-163477142D01*
X122579523Y-163524761D01*
X122484285Y-163572380D01*
X122293809Y-163572380D01*
X122198571Y-163524761D01*
X122150952Y-163477142D01*
X122103333Y-163381904D01*
X122103333Y-162572380D01*
X121770000Y-162572380D02*
X121198571Y-162572380D01*
X121484285Y-163572380D02*
X121484285Y-162572380D01*
X120341428Y-163572380D02*
X120912857Y-163572380D01*
X120627142Y-163572380D02*
X120627142Y-162572380D01*
X120722380Y-162715238D01*
X120817619Y-162810476D01*
X120912857Y-162858095D01*
X128912857Y-173572380D02*
X129246190Y-173096190D01*
X129484285Y-173572380D02*
X129484285Y-172572380D01*
X129103333Y-172572380D01*
X129008095Y-172620000D01*
X128960476Y-172667619D01*
X128912857Y-172762857D01*
X128912857Y-172905714D01*
X128960476Y-173000952D01*
X129008095Y-173048571D01*
X129103333Y-173096190D01*
X129484285Y-173096190D01*
X128484285Y-173048571D02*
X128150952Y-173048571D01*
X128008095Y-173572380D02*
X128484285Y-173572380D01*
X128484285Y-172572380D01*
X128008095Y-172572380D01*
X127722380Y-172572380D02*
X127389047Y-173572380D01*
X127055714Y-172572380D01*
X126722380Y-173048571D02*
X126389047Y-173048571D01*
X126246190Y-173572380D02*
X126722380Y-173572380D01*
X126722380Y-172572380D01*
X126246190Y-172572380D01*
X125246190Y-173572380D02*
X125579523Y-173096190D01*
X125817619Y-173572380D02*
X125817619Y-172572380D01*
X125436666Y-172572380D01*
X125341428Y-172620000D01*
X125293809Y-172667619D01*
X125246190Y-172762857D01*
X125246190Y-172905714D01*
X125293809Y-173000952D01*
X125341428Y-173048571D01*
X125436666Y-173096190D01*
X125817619Y-173096190D01*
X124484285Y-173048571D02*
X124341428Y-173096190D01*
X124293809Y-173143809D01*
X124246190Y-173239047D01*
X124246190Y-173381904D01*
X124293809Y-173477142D01*
X124341428Y-173524761D01*
X124436666Y-173572380D01*
X124817619Y-173572380D01*
X124817619Y-172572380D01*
X124484285Y-172572380D01*
X124389047Y-172620000D01*
X124341428Y-172667619D01*
X124293809Y-172762857D01*
X124293809Y-172858095D01*
X124341428Y-172953333D01*
X124389047Y-173000952D01*
X124484285Y-173048571D01*
X124817619Y-173048571D01*
X124055714Y-173667619D02*
X123293809Y-173667619D01*
X123055714Y-173572380D02*
X123055714Y-172572380D01*
X122579523Y-173572380D02*
X122579523Y-172572380D01*
X122008095Y-173572380D01*
X122008095Y-172572380D01*
X121008095Y-173572380D02*
X121579523Y-173572380D01*
X121293809Y-173572380D02*
X121293809Y-172572380D01*
X121389047Y-172715238D01*
X121484285Y-172810476D01*
X121579523Y-172858095D01*
X127055714Y-88552380D02*
X127055714Y-87552380D01*
X126674761Y-87552380D01*
X126579523Y-87600000D01*
X126531904Y-87647619D01*
X126484285Y-87742857D01*
X126484285Y-87885714D01*
X126531904Y-87980952D01*
X126579523Y-88028571D01*
X126674761Y-88076190D01*
X127055714Y-88076190D01*
X125865238Y-87552380D02*
X125674761Y-87552380D01*
X125579523Y-87600000D01*
X125484285Y-87695238D01*
X125436666Y-87885714D01*
X125436666Y-88219047D01*
X125484285Y-88409523D01*
X125579523Y-88504761D01*
X125674761Y-88552380D01*
X125865238Y-88552380D01*
X125960476Y-88504761D01*
X126055714Y-88409523D01*
X126103333Y-88219047D01*
X126103333Y-87885714D01*
X126055714Y-87695238D01*
X125960476Y-87600000D01*
X125865238Y-87552380D01*
X125103333Y-87552380D02*
X124865238Y-88552380D01*
X124674761Y-87838095D01*
X124484285Y-88552380D01*
X124246190Y-87552380D01*
X123865238Y-88028571D02*
X123531904Y-88028571D01*
X123389047Y-88552380D02*
X123865238Y-88552380D01*
X123865238Y-87552380D01*
X123389047Y-87552380D01*
X122389047Y-88552380D02*
X122722380Y-88076190D01*
X122960476Y-88552380D02*
X122960476Y-87552380D01*
X122579523Y-87552380D01*
X122484285Y-87600000D01*
X122436666Y-87647619D01*
X122389047Y-87742857D01*
X122389047Y-87885714D01*
X122436666Y-87980952D01*
X122484285Y-88028571D01*
X122579523Y-88076190D01*
X122960476Y-88076190D01*
X121436666Y-88552380D02*
X122008095Y-88552380D01*
X121722380Y-88552380D02*
X121722380Y-87552380D01*
X121817619Y-87695238D01*
X121912857Y-87790476D01*
X122008095Y-87838095D01*
M02*
