G04 #@! TF.GenerationSoftware,KiCad,Pcbnew,5.1.9-73d0e3b20d~88~ubuntu20.10.1*
G04 #@! TF.CreationDate,2021-03-07T21:41:18+01:00*
G04 #@! TF.ProjectId,kosmo-spring-reverb-driver,6b6f736d-6f2d-4737-9072-696e672d7265,v1.0.1*
G04 #@! TF.SameCoordinates,Original*
G04 #@! TF.FileFunction,Soldermask,Bot*
G04 #@! TF.FilePolarity,Negative*
%FSLAX46Y46*%
G04 Gerber Fmt 4.6, Leading zero omitted, Abs format (unit mm)*
G04 Created by KiCad (PCBNEW 5.1.9-73d0e3b20d~88~ubuntu20.10.1) date 2021-03-07 21:41:18*
%MOMM*%
%LPD*%
G01*
G04 APERTURE LIST*
%ADD10O,1.000000X2.000000*%
%ADD11C,2.340000*%
%ADD12C,1.600000*%
%ADD13R,1.600000X1.600000*%
%ADD14O,1.600000X1.600000*%
%ADD15O,6.800000X4.000000*%
%ADD16O,1.740000X2.190000*%
%ADD17C,1.700000*%
%ADD18C,1.750000*%
%ADD19O,1.600000X2.400000*%
%ADD20R,1.600000X2.400000*%
%ADD21R,1.500000X1.500000*%
%ADD22C,1.500000*%
G04 APERTURE END LIST*
D10*
X99500000Y-166100000D03*
D11*
X112000000Y-178000000D03*
X107000000Y-178000000D03*
X102000000Y-178000000D03*
D10*
X99500000Y-91100000D03*
D11*
X112000000Y-103000000D03*
X107000000Y-103000000D03*
X102000000Y-103000000D03*
D12*
X126400000Y-132400000D03*
D13*
X126400000Y-129900000D03*
D12*
X125100000Y-137500000D03*
D13*
X125100000Y-140000000D03*
D14*
X120800000Y-104940000D03*
D12*
X120800000Y-115100000D03*
D14*
X124400000Y-101840000D03*
D12*
X124400000Y-112000000D03*
D11*
X119600000Y-187700000D03*
X124600000Y-190200000D03*
X119600000Y-192700000D03*
D15*
X127589155Y-39963207D03*
X127589155Y-233963207D03*
X86428796Y-39963034D03*
X86428796Y-233963034D03*
D14*
X115000000Y-196160000D03*
D12*
X115000000Y-186000000D03*
D16*
X126540000Y-159000000D03*
G36*
G01*
X123130000Y-159845001D02*
X123130000Y-158154999D01*
G75*
G02*
X123379999Y-157905000I249999J0D01*
G01*
X124620001Y-157905000D01*
G75*
G02*
X124870000Y-158154999I0J-249999D01*
G01*
X124870000Y-159845001D01*
G75*
G02*
X124620001Y-160095000I-249999J0D01*
G01*
X123379999Y-160095000D01*
G75*
G02*
X123130000Y-159845001I0J249999D01*
G01*
G37*
X126540000Y-169000000D03*
G36*
G01*
X123130000Y-169845001D02*
X123130000Y-168154999D01*
G75*
G02*
X123379999Y-167905000I249999J0D01*
G01*
X124620001Y-167905000D01*
G75*
G02*
X124870000Y-168154999I0J-249999D01*
G01*
X124870000Y-169845001D01*
G75*
G02*
X124620001Y-170095000I-249999J0D01*
G01*
X123379999Y-170095000D01*
G75*
G02*
X123130000Y-169845001I0J249999D01*
G01*
G37*
D12*
X125200000Y-150200000D03*
D13*
X125200000Y-152700000D03*
D12*
X126300000Y-146700000D03*
D13*
X126300000Y-144200000D03*
D12*
X96300000Y-71600000D03*
D13*
X93800000Y-71600000D03*
D12*
X87300000Y-75500000D03*
D13*
X89800000Y-75500000D03*
D17*
X125540000Y-71840000D03*
X125540000Y-74380000D03*
X125540000Y-76920000D03*
X125540000Y-79460000D03*
X125540000Y-82000000D03*
X123000000Y-71840000D03*
X123000000Y-74380000D03*
X123000000Y-76920000D03*
X123000000Y-79460000D03*
G36*
G01*
X122150000Y-82600000D02*
X122150000Y-81400000D01*
G75*
G02*
X122400000Y-81150000I250000J0D01*
G01*
X123600000Y-81150000D01*
G75*
G02*
X123850000Y-81400000I0J-250000D01*
G01*
X123850000Y-82600000D01*
G75*
G02*
X123600000Y-82850000I-250000J0D01*
G01*
X122400000Y-82850000D01*
G75*
G02*
X122150000Y-82600000I0J250000D01*
G01*
G37*
D12*
X95913968Y-123536371D03*
X95913968Y-118536371D03*
X121200000Y-124000000D03*
X121200000Y-119000000D03*
X91000000Y-109000000D03*
X91000000Y-114000000D03*
X128000000Y-121000000D03*
X128000000Y-116000000D03*
D18*
X119750000Y-199205000D03*
X124830000Y-199205000D03*
X117210000Y-199205000D03*
X122290000Y-199205000D03*
X91750000Y-199205000D03*
X96830000Y-199205000D03*
X89210000Y-199205000D03*
X94290000Y-199205000D03*
D19*
X101000000Y-117380000D03*
X116240000Y-125000000D03*
X103540000Y-117380000D03*
X113700000Y-125000000D03*
X106080000Y-117380000D03*
X111160000Y-125000000D03*
X108620000Y-117380000D03*
X108620000Y-125000000D03*
X111160000Y-117380000D03*
X106080000Y-125000000D03*
X113700000Y-117380000D03*
X103540000Y-125000000D03*
X116240000Y-117380000D03*
D20*
X101000000Y-125000000D03*
D14*
X86000000Y-112840000D03*
D12*
X86000000Y-123000000D03*
D14*
X91000000Y-128160000D03*
D12*
X91000000Y-118000000D03*
D14*
X114460000Y-74800000D03*
D12*
X104300000Y-74800000D03*
D14*
X114460000Y-69700000D03*
D12*
X104300000Y-69700000D03*
D14*
X124600000Y-125960000D03*
D12*
X124600000Y-115800000D03*
D14*
X86000000Y-99840000D03*
D12*
X86000000Y-110000000D03*
D14*
X118000000Y-154160000D03*
D12*
X118000000Y-144000000D03*
D14*
X87000000Y-135840000D03*
D12*
X87000000Y-146000000D03*
D14*
X103000000Y-154160000D03*
D12*
X103000000Y-144000000D03*
D14*
X98000000Y-140840000D03*
D12*
X98000000Y-151000000D03*
D14*
X113000000Y-134840000D03*
D12*
X113000000Y-145000000D03*
D14*
X128000000Y-101840000D03*
D12*
X128000000Y-112000000D03*
D14*
X118000000Y-140160000D03*
D12*
X118000000Y-130000000D03*
D14*
X108000000Y-128840000D03*
D12*
X108000000Y-139000000D03*
D14*
X94000000Y-182840000D03*
D12*
X94000000Y-193000000D03*
D14*
X89000000Y-185840000D03*
D12*
X89000000Y-196000000D03*
D21*
X91000000Y-134000000D03*
D22*
X96080000Y-134000000D03*
X93540000Y-134000000D03*
D21*
X99000000Y-136000000D03*
D22*
X104080000Y-136000000D03*
X101540000Y-136000000D03*
D14*
X93000000Y-147620000D03*
D13*
X93000000Y-140000000D03*
D14*
X108000000Y-142380000D03*
D13*
X108000000Y-150000000D03*
M02*
