G04 #@! TF.GenerationSoftware,KiCad,Pcbnew,7.0.10-7.0.10~ubuntu22.04.1*
G04 #@! TF.CreationDate,2024-01-17T09:34:49+01:00*
G04 #@! TF.ProjectId,kosmo-spring-reverb-driver,6b6f736d-6f2d-4737-9072-696e672d7265,v1.0.1*
G04 #@! TF.SameCoordinates,Original*
G04 #@! TF.FileFunction,Legend,Bot*
G04 #@! TF.FilePolarity,Positive*
%FSLAX46Y46*%
G04 Gerber Fmt 4.6, Leading zero omitted, Abs format (unit mm)*
G04 Created by KiCad (PCBNEW 7.0.10-7.0.10~ubuntu22.04.1) date 2024-01-17 09:34:49*
%MOMM*%
%LPD*%
G01*
G04 APERTURE LIST*
%ADD10C,0.200000*%
%ADD11C,0.300000*%
%ADD12C,0.150000*%
%ADD13C,0.120000*%
%ADD14C,0.100000*%
G04 APERTURE END LIST*
D10*
X117761904Y-82071266D02*
X117000000Y-82071266D01*
X116000000Y-82452219D02*
X116571428Y-82452219D01*
X116285714Y-82452219D02*
X116285714Y-81452219D01*
X116285714Y-81452219D02*
X116380952Y-81595076D01*
X116380952Y-81595076D02*
X116476190Y-81690314D01*
X116476190Y-81690314D02*
X116571428Y-81737933D01*
X115619047Y-81547457D02*
X115571428Y-81499838D01*
X115571428Y-81499838D02*
X115476190Y-81452219D01*
X115476190Y-81452219D02*
X115238095Y-81452219D01*
X115238095Y-81452219D02*
X115142857Y-81499838D01*
X115142857Y-81499838D02*
X115095238Y-81547457D01*
X115095238Y-81547457D02*
X115047619Y-81642695D01*
X115047619Y-81642695D02*
X115047619Y-81737933D01*
X115047619Y-81737933D02*
X115095238Y-81880790D01*
X115095238Y-81880790D02*
X115666666Y-82452219D01*
X115666666Y-82452219D02*
X115047619Y-82452219D01*
X114761904Y-81452219D02*
X114428571Y-82452219D01*
X114428571Y-82452219D02*
X114095238Y-81452219D01*
D11*
X126642855Y-57263328D02*
X126642855Y-55763328D01*
X125785712Y-57263328D02*
X126428569Y-56406185D01*
X125785712Y-55763328D02*
X126642855Y-56620471D01*
X124928569Y-57263328D02*
X125071426Y-57191900D01*
X125071426Y-57191900D02*
X125142855Y-57120471D01*
X125142855Y-57120471D02*
X125214283Y-56977614D01*
X125214283Y-56977614D02*
X125214283Y-56549042D01*
X125214283Y-56549042D02*
X125142855Y-56406185D01*
X125142855Y-56406185D02*
X125071426Y-56334757D01*
X125071426Y-56334757D02*
X124928569Y-56263328D01*
X124928569Y-56263328D02*
X124714283Y-56263328D01*
X124714283Y-56263328D02*
X124571426Y-56334757D01*
X124571426Y-56334757D02*
X124499998Y-56406185D01*
X124499998Y-56406185D02*
X124428569Y-56549042D01*
X124428569Y-56549042D02*
X124428569Y-56977614D01*
X124428569Y-56977614D02*
X124499998Y-57120471D01*
X124499998Y-57120471D02*
X124571426Y-57191900D01*
X124571426Y-57191900D02*
X124714283Y-57263328D01*
X124714283Y-57263328D02*
X124928569Y-57263328D01*
X123857140Y-57191900D02*
X123714283Y-57263328D01*
X123714283Y-57263328D02*
X123428569Y-57263328D01*
X123428569Y-57263328D02*
X123285712Y-57191900D01*
X123285712Y-57191900D02*
X123214283Y-57049042D01*
X123214283Y-57049042D02*
X123214283Y-56977614D01*
X123214283Y-56977614D02*
X123285712Y-56834757D01*
X123285712Y-56834757D02*
X123428569Y-56763328D01*
X123428569Y-56763328D02*
X123642855Y-56763328D01*
X123642855Y-56763328D02*
X123785712Y-56691900D01*
X123785712Y-56691900D02*
X123857140Y-56549042D01*
X123857140Y-56549042D02*
X123857140Y-56477614D01*
X123857140Y-56477614D02*
X123785712Y-56334757D01*
X123785712Y-56334757D02*
X123642855Y-56263328D01*
X123642855Y-56263328D02*
X123428569Y-56263328D01*
X123428569Y-56263328D02*
X123285712Y-56334757D01*
X122571426Y-57263328D02*
X122571426Y-56263328D01*
X122571426Y-56406185D02*
X122499997Y-56334757D01*
X122499997Y-56334757D02*
X122357140Y-56263328D01*
X122357140Y-56263328D02*
X122142854Y-56263328D01*
X122142854Y-56263328D02*
X121999997Y-56334757D01*
X121999997Y-56334757D02*
X121928569Y-56477614D01*
X121928569Y-56477614D02*
X121928569Y-57263328D01*
X121928569Y-56477614D02*
X121857140Y-56334757D01*
X121857140Y-56334757D02*
X121714283Y-56263328D01*
X121714283Y-56263328D02*
X121499997Y-56263328D01*
X121499997Y-56263328D02*
X121357140Y-56334757D01*
X121357140Y-56334757D02*
X121285711Y-56477614D01*
X121285711Y-56477614D02*
X121285711Y-57263328D01*
X120357140Y-57263328D02*
X120499997Y-57191900D01*
X120499997Y-57191900D02*
X120571426Y-57120471D01*
X120571426Y-57120471D02*
X120642854Y-56977614D01*
X120642854Y-56977614D02*
X120642854Y-56549042D01*
X120642854Y-56549042D02*
X120571426Y-56406185D01*
X120571426Y-56406185D02*
X120499997Y-56334757D01*
X120499997Y-56334757D02*
X120357140Y-56263328D01*
X120357140Y-56263328D02*
X120142854Y-56263328D01*
X120142854Y-56263328D02*
X119999997Y-56334757D01*
X119999997Y-56334757D02*
X119928569Y-56406185D01*
X119928569Y-56406185D02*
X119857140Y-56549042D01*
X119857140Y-56549042D02*
X119857140Y-56977614D01*
X119857140Y-56977614D02*
X119928569Y-57120471D01*
X119928569Y-57120471D02*
X119999997Y-57191900D01*
X119999997Y-57191900D02*
X120142854Y-57263328D01*
X120142854Y-57263328D02*
X120357140Y-57263328D01*
X118142854Y-57191900D02*
X117928569Y-57263328D01*
X117928569Y-57263328D02*
X117571426Y-57263328D01*
X117571426Y-57263328D02*
X117428569Y-57191900D01*
X117428569Y-57191900D02*
X117357140Y-57120471D01*
X117357140Y-57120471D02*
X117285711Y-56977614D01*
X117285711Y-56977614D02*
X117285711Y-56834757D01*
X117285711Y-56834757D02*
X117357140Y-56691900D01*
X117357140Y-56691900D02*
X117428569Y-56620471D01*
X117428569Y-56620471D02*
X117571426Y-56549042D01*
X117571426Y-56549042D02*
X117857140Y-56477614D01*
X117857140Y-56477614D02*
X117999997Y-56406185D01*
X117999997Y-56406185D02*
X118071426Y-56334757D01*
X118071426Y-56334757D02*
X118142854Y-56191900D01*
X118142854Y-56191900D02*
X118142854Y-56049042D01*
X118142854Y-56049042D02*
X118071426Y-55906185D01*
X118071426Y-55906185D02*
X117999997Y-55834757D01*
X117999997Y-55834757D02*
X117857140Y-55763328D01*
X117857140Y-55763328D02*
X117499997Y-55763328D01*
X117499997Y-55763328D02*
X117285711Y-55834757D01*
X116642855Y-56263328D02*
X116642855Y-57763328D01*
X116642855Y-56334757D02*
X116499998Y-56263328D01*
X116499998Y-56263328D02*
X116214283Y-56263328D01*
X116214283Y-56263328D02*
X116071426Y-56334757D01*
X116071426Y-56334757D02*
X115999998Y-56406185D01*
X115999998Y-56406185D02*
X115928569Y-56549042D01*
X115928569Y-56549042D02*
X115928569Y-56977614D01*
X115928569Y-56977614D02*
X115999998Y-57120471D01*
X115999998Y-57120471D02*
X116071426Y-57191900D01*
X116071426Y-57191900D02*
X116214283Y-57263328D01*
X116214283Y-57263328D02*
X116499998Y-57263328D01*
X116499998Y-57263328D02*
X116642855Y-57191900D01*
X115285712Y-57263328D02*
X115285712Y-56263328D01*
X115285712Y-56549042D02*
X115214283Y-56406185D01*
X115214283Y-56406185D02*
X115142855Y-56334757D01*
X115142855Y-56334757D02*
X114999997Y-56263328D01*
X114999997Y-56263328D02*
X114857140Y-56263328D01*
X114357141Y-57263328D02*
X114357141Y-56263328D01*
X114357141Y-55763328D02*
X114428569Y-55834757D01*
X114428569Y-55834757D02*
X114357141Y-55906185D01*
X114357141Y-55906185D02*
X114285712Y-55834757D01*
X114285712Y-55834757D02*
X114357141Y-55763328D01*
X114357141Y-55763328D02*
X114357141Y-55906185D01*
X113642855Y-56263328D02*
X113642855Y-57263328D01*
X113642855Y-56406185D02*
X113571426Y-56334757D01*
X113571426Y-56334757D02*
X113428569Y-56263328D01*
X113428569Y-56263328D02*
X113214283Y-56263328D01*
X113214283Y-56263328D02*
X113071426Y-56334757D01*
X113071426Y-56334757D02*
X112999998Y-56477614D01*
X112999998Y-56477614D02*
X112999998Y-57263328D01*
X111642855Y-56263328D02*
X111642855Y-57477614D01*
X111642855Y-57477614D02*
X111714283Y-57620471D01*
X111714283Y-57620471D02*
X111785712Y-57691900D01*
X111785712Y-57691900D02*
X111928569Y-57763328D01*
X111928569Y-57763328D02*
X112142855Y-57763328D01*
X112142855Y-57763328D02*
X112285712Y-57691900D01*
X111642855Y-57191900D02*
X111785712Y-57263328D01*
X111785712Y-57263328D02*
X112071426Y-57263328D01*
X112071426Y-57263328D02*
X112214283Y-57191900D01*
X112214283Y-57191900D02*
X112285712Y-57120471D01*
X112285712Y-57120471D02*
X112357140Y-56977614D01*
X112357140Y-56977614D02*
X112357140Y-56549042D01*
X112357140Y-56549042D02*
X112285712Y-56406185D01*
X112285712Y-56406185D02*
X112214283Y-56334757D01*
X112214283Y-56334757D02*
X112071426Y-56263328D01*
X112071426Y-56263328D02*
X111785712Y-56263328D01*
X111785712Y-56263328D02*
X111642855Y-56334757D01*
X108928569Y-57263328D02*
X109428569Y-56549042D01*
X109785712Y-57263328D02*
X109785712Y-55763328D01*
X109785712Y-55763328D02*
X109214283Y-55763328D01*
X109214283Y-55763328D02*
X109071426Y-55834757D01*
X109071426Y-55834757D02*
X108999997Y-55906185D01*
X108999997Y-55906185D02*
X108928569Y-56049042D01*
X108928569Y-56049042D02*
X108928569Y-56263328D01*
X108928569Y-56263328D02*
X108999997Y-56406185D01*
X108999997Y-56406185D02*
X109071426Y-56477614D01*
X109071426Y-56477614D02*
X109214283Y-56549042D01*
X109214283Y-56549042D02*
X109785712Y-56549042D01*
X107714283Y-57191900D02*
X107857140Y-57263328D01*
X107857140Y-57263328D02*
X108142855Y-57263328D01*
X108142855Y-57263328D02*
X108285712Y-57191900D01*
X108285712Y-57191900D02*
X108357140Y-57049042D01*
X108357140Y-57049042D02*
X108357140Y-56477614D01*
X108357140Y-56477614D02*
X108285712Y-56334757D01*
X108285712Y-56334757D02*
X108142855Y-56263328D01*
X108142855Y-56263328D02*
X107857140Y-56263328D01*
X107857140Y-56263328D02*
X107714283Y-56334757D01*
X107714283Y-56334757D02*
X107642855Y-56477614D01*
X107642855Y-56477614D02*
X107642855Y-56620471D01*
X107642855Y-56620471D02*
X108357140Y-56763328D01*
X107142855Y-56263328D02*
X106785712Y-57263328D01*
X106785712Y-57263328D02*
X106428569Y-56263328D01*
X105285712Y-57191900D02*
X105428569Y-57263328D01*
X105428569Y-57263328D02*
X105714284Y-57263328D01*
X105714284Y-57263328D02*
X105857141Y-57191900D01*
X105857141Y-57191900D02*
X105928569Y-57049042D01*
X105928569Y-57049042D02*
X105928569Y-56477614D01*
X105928569Y-56477614D02*
X105857141Y-56334757D01*
X105857141Y-56334757D02*
X105714284Y-56263328D01*
X105714284Y-56263328D02*
X105428569Y-56263328D01*
X105428569Y-56263328D02*
X105285712Y-56334757D01*
X105285712Y-56334757D02*
X105214284Y-56477614D01*
X105214284Y-56477614D02*
X105214284Y-56620471D01*
X105214284Y-56620471D02*
X105928569Y-56763328D01*
X104571427Y-57263328D02*
X104571427Y-56263328D01*
X104571427Y-56549042D02*
X104499998Y-56406185D01*
X104499998Y-56406185D02*
X104428570Y-56334757D01*
X104428570Y-56334757D02*
X104285712Y-56263328D01*
X104285712Y-56263328D02*
X104142855Y-56263328D01*
X103642856Y-57263328D02*
X103642856Y-55763328D01*
X103642856Y-56334757D02*
X103499999Y-56263328D01*
X103499999Y-56263328D02*
X103214284Y-56263328D01*
X103214284Y-56263328D02*
X103071427Y-56334757D01*
X103071427Y-56334757D02*
X102999999Y-56406185D01*
X102999999Y-56406185D02*
X102928570Y-56549042D01*
X102928570Y-56549042D02*
X102928570Y-56977614D01*
X102928570Y-56977614D02*
X102999999Y-57120471D01*
X102999999Y-57120471D02*
X103071427Y-57191900D01*
X103071427Y-57191900D02*
X103214284Y-57263328D01*
X103214284Y-57263328D02*
X103499999Y-57263328D01*
X103499999Y-57263328D02*
X103642856Y-57191900D01*
X101142856Y-57263328D02*
X101142856Y-55763328D01*
X101142856Y-55763328D02*
X100785713Y-55763328D01*
X100785713Y-55763328D02*
X100571427Y-55834757D01*
X100571427Y-55834757D02*
X100428570Y-55977614D01*
X100428570Y-55977614D02*
X100357141Y-56120471D01*
X100357141Y-56120471D02*
X100285713Y-56406185D01*
X100285713Y-56406185D02*
X100285713Y-56620471D01*
X100285713Y-56620471D02*
X100357141Y-56906185D01*
X100357141Y-56906185D02*
X100428570Y-57049042D01*
X100428570Y-57049042D02*
X100571427Y-57191900D01*
X100571427Y-57191900D02*
X100785713Y-57263328D01*
X100785713Y-57263328D02*
X101142856Y-57263328D01*
X99642856Y-57263328D02*
X99642856Y-56263328D01*
X99642856Y-56549042D02*
X99571427Y-56406185D01*
X99571427Y-56406185D02*
X99499999Y-56334757D01*
X99499999Y-56334757D02*
X99357141Y-56263328D01*
X99357141Y-56263328D02*
X99214284Y-56263328D01*
X98714285Y-57263328D02*
X98714285Y-56263328D01*
X98714285Y-55763328D02*
X98785713Y-55834757D01*
X98785713Y-55834757D02*
X98714285Y-55906185D01*
X98714285Y-55906185D02*
X98642856Y-55834757D01*
X98642856Y-55834757D02*
X98714285Y-55763328D01*
X98714285Y-55763328D02*
X98714285Y-55906185D01*
X98142856Y-56263328D02*
X97785713Y-57263328D01*
X97785713Y-57263328D02*
X97428570Y-56263328D01*
X96285713Y-57191900D02*
X96428570Y-57263328D01*
X96428570Y-57263328D02*
X96714285Y-57263328D01*
X96714285Y-57263328D02*
X96857142Y-57191900D01*
X96857142Y-57191900D02*
X96928570Y-57049042D01*
X96928570Y-57049042D02*
X96928570Y-56477614D01*
X96928570Y-56477614D02*
X96857142Y-56334757D01*
X96857142Y-56334757D02*
X96714285Y-56263328D01*
X96714285Y-56263328D02*
X96428570Y-56263328D01*
X96428570Y-56263328D02*
X96285713Y-56334757D01*
X96285713Y-56334757D02*
X96214285Y-56477614D01*
X96214285Y-56477614D02*
X96214285Y-56620471D01*
X96214285Y-56620471D02*
X96928570Y-56763328D01*
X95571428Y-57263328D02*
X95571428Y-56263328D01*
X95571428Y-56549042D02*
X95499999Y-56406185D01*
X95499999Y-56406185D02*
X95428571Y-56334757D01*
X95428571Y-56334757D02*
X95285713Y-56263328D01*
X95285713Y-56263328D02*
X95142856Y-56263328D01*
X93642857Y-56263328D02*
X93285714Y-57263328D01*
X93285714Y-57263328D02*
X92928571Y-56263328D01*
X91571428Y-57263328D02*
X92428571Y-57263328D01*
X92000000Y-57263328D02*
X92000000Y-55763328D01*
X92000000Y-55763328D02*
X92142857Y-55977614D01*
X92142857Y-55977614D02*
X92285714Y-56120471D01*
X92285714Y-56120471D02*
X92428571Y-56191900D01*
X90928572Y-57120471D02*
X90857143Y-57191900D01*
X90857143Y-57191900D02*
X90928572Y-57263328D01*
X90928572Y-57263328D02*
X91000000Y-57191900D01*
X91000000Y-57191900D02*
X90928572Y-57120471D01*
X90928572Y-57120471D02*
X90928572Y-57263328D01*
X89928571Y-55763328D02*
X89785714Y-55763328D01*
X89785714Y-55763328D02*
X89642857Y-55834757D01*
X89642857Y-55834757D02*
X89571429Y-55906185D01*
X89571429Y-55906185D02*
X89500000Y-56049042D01*
X89500000Y-56049042D02*
X89428571Y-56334757D01*
X89428571Y-56334757D02*
X89428571Y-56691900D01*
X89428571Y-56691900D02*
X89500000Y-56977614D01*
X89500000Y-56977614D02*
X89571429Y-57120471D01*
X89571429Y-57120471D02*
X89642857Y-57191900D01*
X89642857Y-57191900D02*
X89785714Y-57263328D01*
X89785714Y-57263328D02*
X89928571Y-57263328D01*
X89928571Y-57263328D02*
X90071429Y-57191900D01*
X90071429Y-57191900D02*
X90142857Y-57120471D01*
X90142857Y-57120471D02*
X90214286Y-56977614D01*
X90214286Y-56977614D02*
X90285714Y-56691900D01*
X90285714Y-56691900D02*
X90285714Y-56334757D01*
X90285714Y-56334757D02*
X90214286Y-56049042D01*
X90214286Y-56049042D02*
X90142857Y-55906185D01*
X90142857Y-55906185D02*
X90071429Y-55834757D01*
X90071429Y-55834757D02*
X89928571Y-55763328D01*
X88785715Y-57120471D02*
X88714286Y-57191900D01*
X88714286Y-57191900D02*
X88785715Y-57263328D01*
X88785715Y-57263328D02*
X88857143Y-57191900D01*
X88857143Y-57191900D02*
X88785715Y-57120471D01*
X88785715Y-57120471D02*
X88785715Y-57263328D01*
X87285714Y-57263328D02*
X88142857Y-57263328D01*
X87714286Y-57263328D02*
X87714286Y-55763328D01*
X87714286Y-55763328D02*
X87857143Y-55977614D01*
X87857143Y-55977614D02*
X88000000Y-56120471D01*
X88000000Y-56120471D02*
X88142857Y-56191900D01*
X116392855Y-58178328D02*
X116392855Y-59249757D01*
X116392855Y-59249757D02*
X116464284Y-59464042D01*
X116464284Y-59464042D02*
X116607141Y-59606900D01*
X116607141Y-59606900D02*
X116821427Y-59678328D01*
X116821427Y-59678328D02*
X116964284Y-59678328D01*
X115035713Y-59678328D02*
X115035713Y-58892614D01*
X115035713Y-58892614D02*
X115107141Y-58749757D01*
X115107141Y-58749757D02*
X115249998Y-58678328D01*
X115249998Y-58678328D02*
X115535713Y-58678328D01*
X115535713Y-58678328D02*
X115678570Y-58749757D01*
X115035713Y-59606900D02*
X115178570Y-59678328D01*
X115178570Y-59678328D02*
X115535713Y-59678328D01*
X115535713Y-59678328D02*
X115678570Y-59606900D01*
X115678570Y-59606900D02*
X115749998Y-59464042D01*
X115749998Y-59464042D02*
X115749998Y-59321185D01*
X115749998Y-59321185D02*
X115678570Y-59178328D01*
X115678570Y-59178328D02*
X115535713Y-59106900D01*
X115535713Y-59106900D02*
X115178570Y-59106900D01*
X115178570Y-59106900D02*
X115035713Y-59035471D01*
X114321427Y-58678328D02*
X114321427Y-59678328D01*
X114321427Y-58821185D02*
X114249998Y-58749757D01*
X114249998Y-58749757D02*
X114107141Y-58678328D01*
X114107141Y-58678328D02*
X113892855Y-58678328D01*
X113892855Y-58678328D02*
X113749998Y-58749757D01*
X113749998Y-58749757D02*
X113678570Y-58892614D01*
X113678570Y-58892614D02*
X113678570Y-59678328D01*
X111821427Y-59678328D02*
X111821427Y-58178328D01*
X110964284Y-59678328D02*
X111607141Y-58821185D01*
X110964284Y-58178328D02*
X111821427Y-59035471D01*
X110321427Y-58678328D02*
X110321427Y-59678328D01*
X110321427Y-58821185D02*
X110249998Y-58749757D01*
X110249998Y-58749757D02*
X110107141Y-58678328D01*
X110107141Y-58678328D02*
X109892855Y-58678328D01*
X109892855Y-58678328D02*
X109749998Y-58749757D01*
X109749998Y-58749757D02*
X109678570Y-58892614D01*
X109678570Y-58892614D02*
X109678570Y-59678328D01*
X108964284Y-59678328D02*
X108964284Y-58678328D01*
X108964284Y-58178328D02*
X109035712Y-58249757D01*
X109035712Y-58249757D02*
X108964284Y-58321185D01*
X108964284Y-58321185D02*
X108892855Y-58249757D01*
X108892855Y-58249757D02*
X108964284Y-58178328D01*
X108964284Y-58178328D02*
X108964284Y-58321185D01*
X108249998Y-58678328D02*
X108249998Y-60178328D01*
X108249998Y-58749757D02*
X108107141Y-58678328D01*
X108107141Y-58678328D02*
X107821426Y-58678328D01*
X107821426Y-58678328D02*
X107678569Y-58749757D01*
X107678569Y-58749757D02*
X107607141Y-58821185D01*
X107607141Y-58821185D02*
X107535712Y-58964042D01*
X107535712Y-58964042D02*
X107535712Y-59392614D01*
X107535712Y-59392614D02*
X107607141Y-59535471D01*
X107607141Y-59535471D02*
X107678569Y-59606900D01*
X107678569Y-59606900D02*
X107821426Y-59678328D01*
X107821426Y-59678328D02*
X108107141Y-59678328D01*
X108107141Y-59678328D02*
X108249998Y-59606900D01*
X106892855Y-58678328D02*
X106892855Y-60178328D01*
X106892855Y-58749757D02*
X106749998Y-58678328D01*
X106749998Y-58678328D02*
X106464283Y-58678328D01*
X106464283Y-58678328D02*
X106321426Y-58749757D01*
X106321426Y-58749757D02*
X106249998Y-58821185D01*
X106249998Y-58821185D02*
X106178569Y-58964042D01*
X106178569Y-58964042D02*
X106178569Y-59392614D01*
X106178569Y-59392614D02*
X106249998Y-59535471D01*
X106249998Y-59535471D02*
X106321426Y-59606900D01*
X106321426Y-59606900D02*
X106464283Y-59678328D01*
X106464283Y-59678328D02*
X106749998Y-59678328D01*
X106749998Y-59678328D02*
X106892855Y-59606900D01*
X104964283Y-59606900D02*
X105107140Y-59678328D01*
X105107140Y-59678328D02*
X105392855Y-59678328D01*
X105392855Y-59678328D02*
X105535712Y-59606900D01*
X105535712Y-59606900D02*
X105607140Y-59464042D01*
X105607140Y-59464042D02*
X105607140Y-58892614D01*
X105607140Y-58892614D02*
X105535712Y-58749757D01*
X105535712Y-58749757D02*
X105392855Y-58678328D01*
X105392855Y-58678328D02*
X105107140Y-58678328D01*
X105107140Y-58678328D02*
X104964283Y-58749757D01*
X104964283Y-58749757D02*
X104892855Y-58892614D01*
X104892855Y-58892614D02*
X104892855Y-59035471D01*
X104892855Y-59035471D02*
X105607140Y-59178328D01*
X104249998Y-59678328D02*
X104249998Y-58678328D01*
X104249998Y-58964042D02*
X104178569Y-58821185D01*
X104178569Y-58821185D02*
X104107141Y-58749757D01*
X104107141Y-58749757D02*
X103964283Y-58678328D01*
X103964283Y-58678328D02*
X103821426Y-58678328D01*
X102249998Y-58321185D02*
X102178570Y-58249757D01*
X102178570Y-58249757D02*
X102035713Y-58178328D01*
X102035713Y-58178328D02*
X101678570Y-58178328D01*
X101678570Y-58178328D02*
X101535713Y-58249757D01*
X101535713Y-58249757D02*
X101464284Y-58321185D01*
X101464284Y-58321185D02*
X101392855Y-58464042D01*
X101392855Y-58464042D02*
X101392855Y-58606900D01*
X101392855Y-58606900D02*
X101464284Y-58821185D01*
X101464284Y-58821185D02*
X102321427Y-59678328D01*
X102321427Y-59678328D02*
X101392855Y-59678328D01*
X100464284Y-58178328D02*
X100321427Y-58178328D01*
X100321427Y-58178328D02*
X100178570Y-58249757D01*
X100178570Y-58249757D02*
X100107142Y-58321185D01*
X100107142Y-58321185D02*
X100035713Y-58464042D01*
X100035713Y-58464042D02*
X99964284Y-58749757D01*
X99964284Y-58749757D02*
X99964284Y-59106900D01*
X99964284Y-59106900D02*
X100035713Y-59392614D01*
X100035713Y-59392614D02*
X100107142Y-59535471D01*
X100107142Y-59535471D02*
X100178570Y-59606900D01*
X100178570Y-59606900D02*
X100321427Y-59678328D01*
X100321427Y-59678328D02*
X100464284Y-59678328D01*
X100464284Y-59678328D02*
X100607142Y-59606900D01*
X100607142Y-59606900D02*
X100678570Y-59535471D01*
X100678570Y-59535471D02*
X100749999Y-59392614D01*
X100749999Y-59392614D02*
X100821427Y-59106900D01*
X100821427Y-59106900D02*
X100821427Y-58749757D01*
X100821427Y-58749757D02*
X100749999Y-58464042D01*
X100749999Y-58464042D02*
X100678570Y-58321185D01*
X100678570Y-58321185D02*
X100607142Y-58249757D01*
X100607142Y-58249757D02*
X100464284Y-58178328D01*
X99392856Y-58321185D02*
X99321428Y-58249757D01*
X99321428Y-58249757D02*
X99178571Y-58178328D01*
X99178571Y-58178328D02*
X98821428Y-58178328D01*
X98821428Y-58178328D02*
X98678571Y-58249757D01*
X98678571Y-58249757D02*
X98607142Y-58321185D01*
X98607142Y-58321185D02*
X98535713Y-58464042D01*
X98535713Y-58464042D02*
X98535713Y-58606900D01*
X98535713Y-58606900D02*
X98607142Y-58821185D01*
X98607142Y-58821185D02*
X99464285Y-59678328D01*
X99464285Y-59678328D02*
X98535713Y-59678328D01*
X97107142Y-59678328D02*
X97964285Y-59678328D01*
X97535714Y-59678328D02*
X97535714Y-58178328D01*
X97535714Y-58178328D02*
X97678571Y-58392614D01*
X97678571Y-58392614D02*
X97821428Y-58535471D01*
X97821428Y-58535471D02*
X97964285Y-58606900D01*
X116678572Y-61093328D02*
X116678572Y-62307614D01*
X116678572Y-62307614D02*
X116750000Y-62450471D01*
X116750000Y-62450471D02*
X116821429Y-62521900D01*
X116821429Y-62521900D02*
X116964286Y-62593328D01*
X116964286Y-62593328D02*
X117178572Y-62593328D01*
X117178572Y-62593328D02*
X117321429Y-62521900D01*
X116678572Y-62021900D02*
X116821429Y-62093328D01*
X116821429Y-62093328D02*
X117107143Y-62093328D01*
X117107143Y-62093328D02*
X117250000Y-62021900D01*
X117250000Y-62021900D02*
X117321429Y-61950471D01*
X117321429Y-61950471D02*
X117392857Y-61807614D01*
X117392857Y-61807614D02*
X117392857Y-61379042D01*
X117392857Y-61379042D02*
X117321429Y-61236185D01*
X117321429Y-61236185D02*
X117250000Y-61164757D01*
X117250000Y-61164757D02*
X117107143Y-61093328D01*
X117107143Y-61093328D02*
X116821429Y-61093328D01*
X116821429Y-61093328D02*
X116678572Y-61164757D01*
X115964286Y-62093328D02*
X115964286Y-61093328D01*
X115964286Y-60593328D02*
X116035714Y-60664757D01*
X116035714Y-60664757D02*
X115964286Y-60736185D01*
X115964286Y-60736185D02*
X115892857Y-60664757D01*
X115892857Y-60664757D02*
X115964286Y-60593328D01*
X115964286Y-60593328D02*
X115964286Y-60736185D01*
X115464285Y-61093328D02*
X114892857Y-61093328D01*
X115250000Y-60593328D02*
X115250000Y-61879042D01*
X115250000Y-61879042D02*
X115178571Y-62021900D01*
X115178571Y-62021900D02*
X115035714Y-62093328D01*
X115035714Y-62093328D02*
X114892857Y-62093328D01*
X114392857Y-62093328D02*
X114392857Y-60593328D01*
X113750000Y-62093328D02*
X113750000Y-61307614D01*
X113750000Y-61307614D02*
X113821428Y-61164757D01*
X113821428Y-61164757D02*
X113964285Y-61093328D01*
X113964285Y-61093328D02*
X114178571Y-61093328D01*
X114178571Y-61093328D02*
X114321428Y-61164757D01*
X114321428Y-61164757D02*
X114392857Y-61236185D01*
X112392857Y-61093328D02*
X112392857Y-62093328D01*
X113035714Y-61093328D02*
X113035714Y-61879042D01*
X113035714Y-61879042D02*
X112964285Y-62021900D01*
X112964285Y-62021900D02*
X112821428Y-62093328D01*
X112821428Y-62093328D02*
X112607142Y-62093328D01*
X112607142Y-62093328D02*
X112464285Y-62021900D01*
X112464285Y-62021900D02*
X112392857Y-61950471D01*
X111678571Y-62093328D02*
X111678571Y-60593328D01*
X111678571Y-61164757D02*
X111535714Y-61093328D01*
X111535714Y-61093328D02*
X111249999Y-61093328D01*
X111249999Y-61093328D02*
X111107142Y-61164757D01*
X111107142Y-61164757D02*
X111035714Y-61236185D01*
X111035714Y-61236185D02*
X110964285Y-61379042D01*
X110964285Y-61379042D02*
X110964285Y-61807614D01*
X110964285Y-61807614D02*
X111035714Y-61950471D01*
X111035714Y-61950471D02*
X111107142Y-62021900D01*
X111107142Y-62021900D02*
X111249999Y-62093328D01*
X111249999Y-62093328D02*
X111535714Y-62093328D01*
X111535714Y-62093328D02*
X111678571Y-62021900D01*
X110321428Y-61950471D02*
X110249999Y-62021900D01*
X110249999Y-62021900D02*
X110321428Y-62093328D01*
X110321428Y-62093328D02*
X110392856Y-62021900D01*
X110392856Y-62021900D02*
X110321428Y-61950471D01*
X110321428Y-61950471D02*
X110321428Y-62093328D01*
X108964285Y-62021900D02*
X109107142Y-62093328D01*
X109107142Y-62093328D02*
X109392856Y-62093328D01*
X109392856Y-62093328D02*
X109535713Y-62021900D01*
X109535713Y-62021900D02*
X109607142Y-61950471D01*
X109607142Y-61950471D02*
X109678570Y-61807614D01*
X109678570Y-61807614D02*
X109678570Y-61379042D01*
X109678570Y-61379042D02*
X109607142Y-61236185D01*
X109607142Y-61236185D02*
X109535713Y-61164757D01*
X109535713Y-61164757D02*
X109392856Y-61093328D01*
X109392856Y-61093328D02*
X109107142Y-61093328D01*
X109107142Y-61093328D02*
X108964285Y-61164757D01*
X108107142Y-62093328D02*
X108249999Y-62021900D01*
X108249999Y-62021900D02*
X108321428Y-61950471D01*
X108321428Y-61950471D02*
X108392856Y-61807614D01*
X108392856Y-61807614D02*
X108392856Y-61379042D01*
X108392856Y-61379042D02*
X108321428Y-61236185D01*
X108321428Y-61236185D02*
X108249999Y-61164757D01*
X108249999Y-61164757D02*
X108107142Y-61093328D01*
X108107142Y-61093328D02*
X107892856Y-61093328D01*
X107892856Y-61093328D02*
X107749999Y-61164757D01*
X107749999Y-61164757D02*
X107678571Y-61236185D01*
X107678571Y-61236185D02*
X107607142Y-61379042D01*
X107607142Y-61379042D02*
X107607142Y-61807614D01*
X107607142Y-61807614D02*
X107678571Y-61950471D01*
X107678571Y-61950471D02*
X107749999Y-62021900D01*
X107749999Y-62021900D02*
X107892856Y-62093328D01*
X107892856Y-62093328D02*
X108107142Y-62093328D01*
X106964285Y-62093328D02*
X106964285Y-61093328D01*
X106964285Y-61236185D02*
X106892856Y-61164757D01*
X106892856Y-61164757D02*
X106749999Y-61093328D01*
X106749999Y-61093328D02*
X106535713Y-61093328D01*
X106535713Y-61093328D02*
X106392856Y-61164757D01*
X106392856Y-61164757D02*
X106321428Y-61307614D01*
X106321428Y-61307614D02*
X106321428Y-62093328D01*
X106321428Y-61307614D02*
X106249999Y-61164757D01*
X106249999Y-61164757D02*
X106107142Y-61093328D01*
X106107142Y-61093328D02*
X105892856Y-61093328D01*
X105892856Y-61093328D02*
X105749999Y-61164757D01*
X105749999Y-61164757D02*
X105678570Y-61307614D01*
X105678570Y-61307614D02*
X105678570Y-62093328D01*
X103892856Y-60521900D02*
X105178570Y-62450471D01*
X103392856Y-61093328D02*
X103392856Y-62593328D01*
X103392856Y-61164757D02*
X103249999Y-61093328D01*
X103249999Y-61093328D02*
X102964284Y-61093328D01*
X102964284Y-61093328D02*
X102821427Y-61164757D01*
X102821427Y-61164757D02*
X102749999Y-61236185D01*
X102749999Y-61236185D02*
X102678570Y-61379042D01*
X102678570Y-61379042D02*
X102678570Y-61807614D01*
X102678570Y-61807614D02*
X102749999Y-61950471D01*
X102749999Y-61950471D02*
X102821427Y-62021900D01*
X102821427Y-62021900D02*
X102964284Y-62093328D01*
X102964284Y-62093328D02*
X103249999Y-62093328D01*
X103249999Y-62093328D02*
X103392856Y-62021900D01*
X101821427Y-62093328D02*
X101964284Y-62021900D01*
X101964284Y-62021900D02*
X102035713Y-61950471D01*
X102035713Y-61950471D02*
X102107141Y-61807614D01*
X102107141Y-61807614D02*
X102107141Y-61379042D01*
X102107141Y-61379042D02*
X102035713Y-61236185D01*
X102035713Y-61236185D02*
X101964284Y-61164757D01*
X101964284Y-61164757D02*
X101821427Y-61093328D01*
X101821427Y-61093328D02*
X101607141Y-61093328D01*
X101607141Y-61093328D02*
X101464284Y-61164757D01*
X101464284Y-61164757D02*
X101392856Y-61236185D01*
X101392856Y-61236185D02*
X101321427Y-61379042D01*
X101321427Y-61379042D02*
X101321427Y-61807614D01*
X101321427Y-61807614D02*
X101392856Y-61950471D01*
X101392856Y-61950471D02*
X101464284Y-62021900D01*
X101464284Y-62021900D02*
X101607141Y-62093328D01*
X101607141Y-62093328D02*
X101821427Y-62093328D01*
X100464284Y-62093328D02*
X100607141Y-62021900D01*
X100607141Y-62021900D02*
X100678570Y-61879042D01*
X100678570Y-61879042D02*
X100678570Y-60593328D01*
X100035713Y-61093328D02*
X99678570Y-62093328D01*
X99321427Y-61093328D02*
X99678570Y-62093328D01*
X99678570Y-62093328D02*
X99821427Y-62450471D01*
X99821427Y-62450471D02*
X99892856Y-62521900D01*
X99892856Y-62521900D02*
X100035713Y-62593328D01*
X98749999Y-62093328D02*
X98749999Y-60593328D01*
X98607142Y-61521900D02*
X98178570Y-62093328D01*
X98178570Y-61093328D02*
X98749999Y-61664757D01*
X97535713Y-62093328D02*
X97535713Y-61093328D01*
X97535713Y-60593328D02*
X97607141Y-60664757D01*
X97607141Y-60664757D02*
X97535713Y-60736185D01*
X97535713Y-60736185D02*
X97464284Y-60664757D01*
X97464284Y-60664757D02*
X97535713Y-60593328D01*
X97535713Y-60593328D02*
X97535713Y-60736185D01*
X97035712Y-61093328D02*
X96464284Y-61093328D01*
X96821427Y-60593328D02*
X96821427Y-61879042D01*
X96821427Y-61879042D02*
X96749998Y-62021900D01*
X96749998Y-62021900D02*
X96607141Y-62093328D01*
X96607141Y-62093328D02*
X96464284Y-62093328D01*
D10*
X83183528Y-202071428D02*
X84254957Y-202071428D01*
X84254957Y-202071428D02*
X84469242Y-201999999D01*
X84469242Y-201999999D02*
X84612100Y-201857142D01*
X84612100Y-201857142D02*
X84683528Y-201642856D01*
X84683528Y-201642856D02*
X84683528Y-201499999D01*
X84683528Y-203499999D02*
X84683528Y-202785713D01*
X84683528Y-202785713D02*
X83183528Y-202785713D01*
X84540671Y-204857142D02*
X84612100Y-204785714D01*
X84612100Y-204785714D02*
X84683528Y-204571428D01*
X84683528Y-204571428D02*
X84683528Y-204428571D01*
X84683528Y-204428571D02*
X84612100Y-204214285D01*
X84612100Y-204214285D02*
X84469242Y-204071428D01*
X84469242Y-204071428D02*
X84326385Y-203999999D01*
X84326385Y-203999999D02*
X84040671Y-203928571D01*
X84040671Y-203928571D02*
X83826385Y-203928571D01*
X83826385Y-203928571D02*
X83540671Y-203999999D01*
X83540671Y-203999999D02*
X83397814Y-204071428D01*
X83397814Y-204071428D02*
X83254957Y-204214285D01*
X83254957Y-204214285D02*
X83183528Y-204428571D01*
X83183528Y-204428571D02*
X83183528Y-204571428D01*
X83183528Y-204571428D02*
X83254957Y-204785714D01*
X83254957Y-204785714D02*
X83326385Y-204857142D01*
X83183528Y-205928571D02*
X84254957Y-205928571D01*
X84254957Y-205928571D02*
X84469242Y-205857142D01*
X84469242Y-205857142D02*
X84612100Y-205714285D01*
X84612100Y-205714285D02*
X84683528Y-205499999D01*
X84683528Y-205499999D02*
X84683528Y-205357142D01*
X84683528Y-207357142D02*
X84683528Y-206642856D01*
X84683528Y-206642856D02*
X83183528Y-206642856D01*
X84540671Y-208714285D02*
X84612100Y-208642857D01*
X84612100Y-208642857D02*
X84683528Y-208428571D01*
X84683528Y-208428571D02*
X84683528Y-208285714D01*
X84683528Y-208285714D02*
X84612100Y-208071428D01*
X84612100Y-208071428D02*
X84469242Y-207928571D01*
X84469242Y-207928571D02*
X84326385Y-207857142D01*
X84326385Y-207857142D02*
X84040671Y-207785714D01*
X84040671Y-207785714D02*
X83826385Y-207785714D01*
X83826385Y-207785714D02*
X83540671Y-207857142D01*
X83540671Y-207857142D02*
X83397814Y-207928571D01*
X83397814Y-207928571D02*
X83254957Y-208071428D01*
X83254957Y-208071428D02*
X83183528Y-208285714D01*
X83183528Y-208285714D02*
X83183528Y-208428571D01*
X83183528Y-208428571D02*
X83254957Y-208642857D01*
X83254957Y-208642857D02*
X83326385Y-208714285D01*
X83183528Y-209785714D02*
X84254957Y-209785714D01*
X84254957Y-209785714D02*
X84469242Y-209714285D01*
X84469242Y-209714285D02*
X84612100Y-209571428D01*
X84612100Y-209571428D02*
X84683528Y-209357142D01*
X84683528Y-209357142D02*
X84683528Y-209214285D01*
X84683528Y-211214285D02*
X84683528Y-210499999D01*
X84683528Y-210499999D02*
X83183528Y-210499999D01*
X84540671Y-212571428D02*
X84612100Y-212500000D01*
X84612100Y-212500000D02*
X84683528Y-212285714D01*
X84683528Y-212285714D02*
X84683528Y-212142857D01*
X84683528Y-212142857D02*
X84612100Y-211928571D01*
X84612100Y-211928571D02*
X84469242Y-211785714D01*
X84469242Y-211785714D02*
X84326385Y-211714285D01*
X84326385Y-211714285D02*
X84040671Y-211642857D01*
X84040671Y-211642857D02*
X83826385Y-211642857D01*
X83826385Y-211642857D02*
X83540671Y-211714285D01*
X83540671Y-211714285D02*
X83397814Y-211785714D01*
X83397814Y-211785714D02*
X83254957Y-211928571D01*
X83254957Y-211928571D02*
X83183528Y-212142857D01*
X83183528Y-212142857D02*
X83183528Y-212285714D01*
X83183528Y-212285714D02*
X83254957Y-212500000D01*
X83254957Y-212500000D02*
X83326385Y-212571428D01*
X83183528Y-213642857D02*
X84254957Y-213642857D01*
X84254957Y-213642857D02*
X84469242Y-213571428D01*
X84469242Y-213571428D02*
X84612100Y-213428571D01*
X84612100Y-213428571D02*
X84683528Y-213214285D01*
X84683528Y-213214285D02*
X84683528Y-213071428D01*
X84683528Y-215071428D02*
X84683528Y-214357142D01*
X84683528Y-214357142D02*
X83183528Y-214357142D01*
X84540671Y-216428571D02*
X84612100Y-216357143D01*
X84612100Y-216357143D02*
X84683528Y-216142857D01*
X84683528Y-216142857D02*
X84683528Y-216000000D01*
X84683528Y-216000000D02*
X84612100Y-215785714D01*
X84612100Y-215785714D02*
X84469242Y-215642857D01*
X84469242Y-215642857D02*
X84326385Y-215571428D01*
X84326385Y-215571428D02*
X84040671Y-215500000D01*
X84040671Y-215500000D02*
X83826385Y-215500000D01*
X83826385Y-215500000D02*
X83540671Y-215571428D01*
X83540671Y-215571428D02*
X83397814Y-215642857D01*
X83397814Y-215642857D02*
X83254957Y-215785714D01*
X83254957Y-215785714D02*
X83183528Y-216000000D01*
X83183528Y-216000000D02*
X83183528Y-216142857D01*
X83183528Y-216142857D02*
X83254957Y-216357143D01*
X83254957Y-216357143D02*
X83326385Y-216428571D01*
D12*
X129579524Y-163574819D02*
X129912857Y-163098628D01*
X130150952Y-163574819D02*
X130150952Y-162574819D01*
X130150952Y-162574819D02*
X129770000Y-162574819D01*
X129770000Y-162574819D02*
X129674762Y-162622438D01*
X129674762Y-162622438D02*
X129627143Y-162670057D01*
X129627143Y-162670057D02*
X129579524Y-162765295D01*
X129579524Y-162765295D02*
X129579524Y-162908152D01*
X129579524Y-162908152D02*
X129627143Y-163003390D01*
X129627143Y-163003390D02*
X129674762Y-163051009D01*
X129674762Y-163051009D02*
X129770000Y-163098628D01*
X129770000Y-163098628D02*
X130150952Y-163098628D01*
X129150952Y-163051009D02*
X128817619Y-163051009D01*
X128674762Y-163574819D02*
X129150952Y-163574819D01*
X129150952Y-163574819D02*
X129150952Y-162574819D01*
X129150952Y-162574819D02*
X128674762Y-162574819D01*
X128389047Y-162574819D02*
X128055714Y-163574819D01*
X128055714Y-163574819D02*
X127722381Y-162574819D01*
X127389047Y-163051009D02*
X127055714Y-163051009D01*
X126912857Y-163574819D02*
X127389047Y-163574819D01*
X127389047Y-163574819D02*
X127389047Y-162574819D01*
X127389047Y-162574819D02*
X126912857Y-162574819D01*
X125912857Y-163574819D02*
X126246190Y-163098628D01*
X126484285Y-163574819D02*
X126484285Y-162574819D01*
X126484285Y-162574819D02*
X126103333Y-162574819D01*
X126103333Y-162574819D02*
X126008095Y-162622438D01*
X126008095Y-162622438D02*
X125960476Y-162670057D01*
X125960476Y-162670057D02*
X125912857Y-162765295D01*
X125912857Y-162765295D02*
X125912857Y-162908152D01*
X125912857Y-162908152D02*
X125960476Y-163003390D01*
X125960476Y-163003390D02*
X126008095Y-163051009D01*
X126008095Y-163051009D02*
X126103333Y-163098628D01*
X126103333Y-163098628D02*
X126484285Y-163098628D01*
X125150952Y-163051009D02*
X125008095Y-163098628D01*
X125008095Y-163098628D02*
X124960476Y-163146247D01*
X124960476Y-163146247D02*
X124912857Y-163241485D01*
X124912857Y-163241485D02*
X124912857Y-163384342D01*
X124912857Y-163384342D02*
X124960476Y-163479580D01*
X124960476Y-163479580D02*
X125008095Y-163527200D01*
X125008095Y-163527200D02*
X125103333Y-163574819D01*
X125103333Y-163574819D02*
X125484285Y-163574819D01*
X125484285Y-163574819D02*
X125484285Y-162574819D01*
X125484285Y-162574819D02*
X125150952Y-162574819D01*
X125150952Y-162574819D02*
X125055714Y-162622438D01*
X125055714Y-162622438D02*
X125008095Y-162670057D01*
X125008095Y-162670057D02*
X124960476Y-162765295D01*
X124960476Y-162765295D02*
X124960476Y-162860533D01*
X124960476Y-162860533D02*
X125008095Y-162955771D01*
X125008095Y-162955771D02*
X125055714Y-163003390D01*
X125055714Y-163003390D02*
X125150952Y-163051009D01*
X125150952Y-163051009D02*
X125484285Y-163051009D01*
X124722381Y-163670057D02*
X123960476Y-163670057D01*
X123531904Y-162574819D02*
X123341428Y-162574819D01*
X123341428Y-162574819D02*
X123246190Y-162622438D01*
X123246190Y-162622438D02*
X123150952Y-162717676D01*
X123150952Y-162717676D02*
X123103333Y-162908152D01*
X123103333Y-162908152D02*
X123103333Y-163241485D01*
X123103333Y-163241485D02*
X123150952Y-163431961D01*
X123150952Y-163431961D02*
X123246190Y-163527200D01*
X123246190Y-163527200D02*
X123341428Y-163574819D01*
X123341428Y-163574819D02*
X123531904Y-163574819D01*
X123531904Y-163574819D02*
X123627142Y-163527200D01*
X123627142Y-163527200D02*
X123722380Y-163431961D01*
X123722380Y-163431961D02*
X123769999Y-163241485D01*
X123769999Y-163241485D02*
X123769999Y-162908152D01*
X123769999Y-162908152D02*
X123722380Y-162717676D01*
X123722380Y-162717676D02*
X123627142Y-162622438D01*
X123627142Y-162622438D02*
X123531904Y-162574819D01*
X122674761Y-162574819D02*
X122674761Y-163384342D01*
X122674761Y-163384342D02*
X122627142Y-163479580D01*
X122627142Y-163479580D02*
X122579523Y-163527200D01*
X122579523Y-163527200D02*
X122484285Y-163574819D01*
X122484285Y-163574819D02*
X122293809Y-163574819D01*
X122293809Y-163574819D02*
X122198571Y-163527200D01*
X122198571Y-163527200D02*
X122150952Y-163479580D01*
X122150952Y-163479580D02*
X122103333Y-163384342D01*
X122103333Y-163384342D02*
X122103333Y-162574819D01*
X121769999Y-162574819D02*
X121198571Y-162574819D01*
X121484285Y-163574819D02*
X121484285Y-162574819D01*
X120341428Y-163574819D02*
X120912856Y-163574819D01*
X120627142Y-163574819D02*
X120627142Y-162574819D01*
X120627142Y-162574819D02*
X120722380Y-162717676D01*
X120722380Y-162717676D02*
X120817618Y-162812914D01*
X120817618Y-162812914D02*
X120912856Y-162860533D01*
X128912857Y-173574819D02*
X129246190Y-173098628D01*
X129484285Y-173574819D02*
X129484285Y-172574819D01*
X129484285Y-172574819D02*
X129103333Y-172574819D01*
X129103333Y-172574819D02*
X129008095Y-172622438D01*
X129008095Y-172622438D02*
X128960476Y-172670057D01*
X128960476Y-172670057D02*
X128912857Y-172765295D01*
X128912857Y-172765295D02*
X128912857Y-172908152D01*
X128912857Y-172908152D02*
X128960476Y-173003390D01*
X128960476Y-173003390D02*
X129008095Y-173051009D01*
X129008095Y-173051009D02*
X129103333Y-173098628D01*
X129103333Y-173098628D02*
X129484285Y-173098628D01*
X128484285Y-173051009D02*
X128150952Y-173051009D01*
X128008095Y-173574819D02*
X128484285Y-173574819D01*
X128484285Y-173574819D02*
X128484285Y-172574819D01*
X128484285Y-172574819D02*
X128008095Y-172574819D01*
X127722380Y-172574819D02*
X127389047Y-173574819D01*
X127389047Y-173574819D02*
X127055714Y-172574819D01*
X126722380Y-173051009D02*
X126389047Y-173051009D01*
X126246190Y-173574819D02*
X126722380Y-173574819D01*
X126722380Y-173574819D02*
X126722380Y-172574819D01*
X126722380Y-172574819D02*
X126246190Y-172574819D01*
X125246190Y-173574819D02*
X125579523Y-173098628D01*
X125817618Y-173574819D02*
X125817618Y-172574819D01*
X125817618Y-172574819D02*
X125436666Y-172574819D01*
X125436666Y-172574819D02*
X125341428Y-172622438D01*
X125341428Y-172622438D02*
X125293809Y-172670057D01*
X125293809Y-172670057D02*
X125246190Y-172765295D01*
X125246190Y-172765295D02*
X125246190Y-172908152D01*
X125246190Y-172908152D02*
X125293809Y-173003390D01*
X125293809Y-173003390D02*
X125341428Y-173051009D01*
X125341428Y-173051009D02*
X125436666Y-173098628D01*
X125436666Y-173098628D02*
X125817618Y-173098628D01*
X124484285Y-173051009D02*
X124341428Y-173098628D01*
X124341428Y-173098628D02*
X124293809Y-173146247D01*
X124293809Y-173146247D02*
X124246190Y-173241485D01*
X124246190Y-173241485D02*
X124246190Y-173384342D01*
X124246190Y-173384342D02*
X124293809Y-173479580D01*
X124293809Y-173479580D02*
X124341428Y-173527200D01*
X124341428Y-173527200D02*
X124436666Y-173574819D01*
X124436666Y-173574819D02*
X124817618Y-173574819D01*
X124817618Y-173574819D02*
X124817618Y-172574819D01*
X124817618Y-172574819D02*
X124484285Y-172574819D01*
X124484285Y-172574819D02*
X124389047Y-172622438D01*
X124389047Y-172622438D02*
X124341428Y-172670057D01*
X124341428Y-172670057D02*
X124293809Y-172765295D01*
X124293809Y-172765295D02*
X124293809Y-172860533D01*
X124293809Y-172860533D02*
X124341428Y-172955771D01*
X124341428Y-172955771D02*
X124389047Y-173003390D01*
X124389047Y-173003390D02*
X124484285Y-173051009D01*
X124484285Y-173051009D02*
X124817618Y-173051009D01*
X124055714Y-173670057D02*
X123293809Y-173670057D01*
X123055713Y-173574819D02*
X123055713Y-172574819D01*
X122579523Y-173574819D02*
X122579523Y-172574819D01*
X122579523Y-172574819D02*
X122008095Y-173574819D01*
X122008095Y-173574819D02*
X122008095Y-172574819D01*
X121008095Y-173574819D02*
X121579523Y-173574819D01*
X121293809Y-173574819D02*
X121293809Y-172574819D01*
X121293809Y-172574819D02*
X121389047Y-172717676D01*
X121389047Y-172717676D02*
X121484285Y-172812914D01*
X121484285Y-172812914D02*
X121579523Y-172860533D01*
X127055713Y-88554819D02*
X127055713Y-87554819D01*
X127055713Y-87554819D02*
X126674761Y-87554819D01*
X126674761Y-87554819D02*
X126579523Y-87602438D01*
X126579523Y-87602438D02*
X126531904Y-87650057D01*
X126531904Y-87650057D02*
X126484285Y-87745295D01*
X126484285Y-87745295D02*
X126484285Y-87888152D01*
X126484285Y-87888152D02*
X126531904Y-87983390D01*
X126531904Y-87983390D02*
X126579523Y-88031009D01*
X126579523Y-88031009D02*
X126674761Y-88078628D01*
X126674761Y-88078628D02*
X127055713Y-88078628D01*
X125865237Y-87554819D02*
X125674761Y-87554819D01*
X125674761Y-87554819D02*
X125579523Y-87602438D01*
X125579523Y-87602438D02*
X125484285Y-87697676D01*
X125484285Y-87697676D02*
X125436666Y-87888152D01*
X125436666Y-87888152D02*
X125436666Y-88221485D01*
X125436666Y-88221485D02*
X125484285Y-88411961D01*
X125484285Y-88411961D02*
X125579523Y-88507200D01*
X125579523Y-88507200D02*
X125674761Y-88554819D01*
X125674761Y-88554819D02*
X125865237Y-88554819D01*
X125865237Y-88554819D02*
X125960475Y-88507200D01*
X125960475Y-88507200D02*
X126055713Y-88411961D01*
X126055713Y-88411961D02*
X126103332Y-88221485D01*
X126103332Y-88221485D02*
X126103332Y-87888152D01*
X126103332Y-87888152D02*
X126055713Y-87697676D01*
X126055713Y-87697676D02*
X125960475Y-87602438D01*
X125960475Y-87602438D02*
X125865237Y-87554819D01*
X125103332Y-87554819D02*
X124865237Y-88554819D01*
X124865237Y-88554819D02*
X124674761Y-87840533D01*
X124674761Y-87840533D02*
X124484285Y-88554819D01*
X124484285Y-88554819D02*
X124246190Y-87554819D01*
X123865237Y-88031009D02*
X123531904Y-88031009D01*
X123389047Y-88554819D02*
X123865237Y-88554819D01*
X123865237Y-88554819D02*
X123865237Y-87554819D01*
X123865237Y-87554819D02*
X123389047Y-87554819D01*
X122389047Y-88554819D02*
X122722380Y-88078628D01*
X122960475Y-88554819D02*
X122960475Y-87554819D01*
X122960475Y-87554819D02*
X122579523Y-87554819D01*
X122579523Y-87554819D02*
X122484285Y-87602438D01*
X122484285Y-87602438D02*
X122436666Y-87650057D01*
X122436666Y-87650057D02*
X122389047Y-87745295D01*
X122389047Y-87745295D02*
X122389047Y-87888152D01*
X122389047Y-87888152D02*
X122436666Y-87983390D01*
X122436666Y-87983390D02*
X122484285Y-88031009D01*
X122484285Y-88031009D02*
X122579523Y-88078628D01*
X122579523Y-88078628D02*
X122960475Y-88078628D01*
X121436666Y-88554819D02*
X122008094Y-88554819D01*
X121722380Y-88554819D02*
X121722380Y-87554819D01*
X121722380Y-87554819D02*
X121817618Y-87697676D01*
X121817618Y-87697676D02*
X121912856Y-87792914D01*
X121912856Y-87792914D02*
X122008094Y-87840533D01*
D13*
X122620000Y-162030000D02*
X122620000Y-156010000D01*
X122620000Y-156010000D02*
X127920000Y-156010000D01*
X127920000Y-156010000D02*
X127920000Y-162030000D01*
X127920000Y-162030000D02*
X122620000Y-162030000D01*
X122330000Y-161000000D02*
X122330000Y-157000000D01*
X124000000Y-156010000D02*
X124000000Y-157010000D01*
X124000000Y-157010000D02*
X126540000Y-157010000D01*
X126540000Y-157010000D02*
X126540000Y-156010000D01*
X124000000Y-157010000D02*
X124250000Y-157540000D01*
X124250000Y-157540000D02*
X126290000Y-157540000D01*
X126290000Y-157540000D02*
X126540000Y-157010000D01*
X124250000Y-156010000D02*
X124250000Y-157010000D01*
X126290000Y-156010000D02*
X126290000Y-157010000D01*
X123200000Y-162030000D02*
X123200000Y-161430000D01*
X123200000Y-161430000D02*
X124800000Y-161430000D01*
X124800000Y-161430000D02*
X124800000Y-162030000D01*
X125740000Y-162030000D02*
X125740000Y-161430000D01*
X125740000Y-161430000D02*
X127340000Y-161430000D01*
X127340000Y-161430000D02*
X127340000Y-162030000D01*
X122620000Y-172030000D02*
X122620000Y-166010000D01*
X122620000Y-166010000D02*
X127920000Y-166010000D01*
X127920000Y-166010000D02*
X127920000Y-172030000D01*
X127920000Y-172030000D02*
X122620000Y-172030000D01*
X122330000Y-171000000D02*
X122330000Y-167000000D01*
X124000000Y-166010000D02*
X124000000Y-167010000D01*
X124000000Y-167010000D02*
X126540000Y-167010000D01*
X126540000Y-167010000D02*
X126540000Y-166010000D01*
X124000000Y-167010000D02*
X124250000Y-167540000D01*
X124250000Y-167540000D02*
X126290000Y-167540000D01*
X126290000Y-167540000D02*
X126540000Y-167010000D01*
X124250000Y-166010000D02*
X124250000Y-167010000D01*
X126290000Y-166010000D02*
X126290000Y-167010000D01*
X123200000Y-172030000D02*
X123200000Y-171430000D01*
X123200000Y-171430000D02*
X124800000Y-171430000D01*
X124800000Y-171430000D02*
X124800000Y-172030000D01*
X125740000Y-172030000D02*
X125740000Y-171430000D01*
X125740000Y-171430000D02*
X127340000Y-171430000D01*
X127340000Y-171430000D02*
X127340000Y-172030000D01*
X119710000Y-87210000D02*
X128830000Y-87210000D01*
X128830000Y-87210000D02*
X128830000Y-66630000D01*
X128830000Y-66630000D02*
X119710000Y-66630000D01*
X119710000Y-66630000D02*
X119710000Y-87210000D01*
X119710000Y-78970000D02*
X121020000Y-78970000D01*
X121020000Y-78970000D02*
X121020000Y-85910000D01*
X121020000Y-85910000D02*
X127520000Y-85910000D01*
X127520000Y-85910000D02*
X127520000Y-67930000D01*
X127520000Y-67930000D02*
X121020000Y-67930000D01*
X121020000Y-67930000D02*
X121020000Y-74870000D01*
X121020000Y-74870000D02*
X121020000Y-74870000D01*
X121020000Y-74870000D02*
X119710000Y-74870000D01*
X119320000Y-82000000D02*
X118320000Y-82500000D01*
X118320000Y-82500000D02*
X118320000Y-81500000D01*
X118320000Y-81500000D02*
X119320000Y-82000000D01*
D14*
X121100000Y-200100000D02*
X118900000Y-200100000D01*
X118900000Y-198300000D01*
X121100000Y-198300000D01*
X121100000Y-200100000D01*
G36*
X121100000Y-200100000D02*
G01*
X118900000Y-200100000D01*
X118900000Y-198300000D01*
X121100000Y-198300000D01*
X121100000Y-200100000D01*
G37*
D12*
X121300000Y-200300000D02*
X121300000Y-198300000D01*
X117500000Y-216500000D02*
X113500000Y-212500000D01*
X116200000Y-200300000D02*
X116200000Y-198300000D01*
X121100000Y-200300000D02*
X116200000Y-200300000D01*
D14*
X126200000Y-200100000D02*
X124000000Y-200100000D01*
X124000000Y-198300000D01*
X126200000Y-198300000D01*
X126200000Y-200100000D01*
G36*
X126200000Y-200100000D02*
G01*
X124000000Y-200100000D01*
X124000000Y-198300000D01*
X126200000Y-198300000D01*
X126200000Y-200100000D01*
G37*
D12*
X126200000Y-200300000D02*
X121300000Y-200300000D01*
D14*
X93100000Y-200100000D02*
X90900000Y-200100000D01*
X90900000Y-198300000D01*
X93100000Y-198300000D01*
X93100000Y-200100000D01*
G36*
X93100000Y-200100000D02*
G01*
X90900000Y-200100000D01*
X90900000Y-198300000D01*
X93100000Y-198300000D01*
X93100000Y-200100000D01*
G37*
D12*
X93300000Y-200300000D02*
X93300000Y-198300000D01*
X89500000Y-216500000D02*
X85500000Y-212500000D01*
X88200000Y-200300000D02*
X88200000Y-198300000D01*
X93100000Y-200300000D02*
X88200000Y-200300000D01*
D14*
X98200000Y-200100000D02*
X96000000Y-200100000D01*
X96000000Y-198300000D01*
X98200000Y-198300000D01*
X98200000Y-200100000D01*
G36*
X98200000Y-200100000D02*
G01*
X96000000Y-200100000D01*
X96000000Y-198300000D01*
X98200000Y-198300000D01*
X98200000Y-200100000D01*
G37*
D12*
X98200000Y-200300000D02*
X93300000Y-200300000D01*
M02*
