M48
; DRILL file {KiCad 5.1.9-73d0e3b20d~88~ubuntu20.10.1} date Sat Mar  6 19:26:05 2021
; FORMAT={-:-/ absolute / inch / decimal}
; #@! TF.CreationDate,2021-03-06T19:26:05+01:00
; #@! TF.GenerationSoftware,Kicad,Pcbnew,5.1.9-73d0e3b20d~88~ubuntu20.10.1
; #@! TF.FileFunction,Plated,1,2,PTH
FMAT,2
INCH
T1C0.0150
T2C0.0157
T3C0.0300
T4C0.0315
T5C0.0394
T6C0.0469
T7C0.0512
T8C0.1260
T9C0.2559
T10C0.3937
%
G90
G05
T1
X4.5764Y-5.589
X4.7638Y-5.748
T2
X3.8189Y-5.0394
T3
X3.5122Y-7.8427
X3.6122Y-7.8427
X3.7122Y-7.8427
X3.8122Y-7.8427
X4.6146Y-7.8427
X4.7146Y-7.8427
X4.8146Y-7.8427
X4.9146Y-7.8427
T4
X3.3858Y-3.9307
X3.3858Y-4.3307
X3.3858Y-4.4425
X3.3858Y-4.8425
X3.4252Y-5.348
X3.4252Y-5.748
X3.4921Y-2.8898
X3.5039Y-7.3165
X3.5039Y-7.7165
X3.5827Y-4.2913
X3.5827Y-4.4882
X3.5827Y-4.6457
X3.5827Y-5.0457
X3.5827Y-5.2756
X3.5906Y-2.8898
X3.6614Y-5.5118
X3.6614Y-5.8118
X3.6827Y-5.2756
X3.7008Y-7.1984
X3.7008Y-7.5984
X3.7761Y-4.6668
X3.7761Y-4.8636
X3.7827Y-5.2756
X3.7953Y-3.0315
X3.8583Y-5.5449
X3.8583Y-5.9449
X3.8937Y-3.0315
X3.8976Y-5.3543
X3.9764Y-4.6213
X3.9764Y-4.9213
X3.9976Y-5.3543
X4.0551Y-5.6693
X4.0551Y-6.0693
X4.0764Y-4.6213
X4.0764Y-4.9213
X4.0976Y-5.3543
X4.1063Y-2.7441
X4.1063Y-2.9449
X4.1764Y-4.6213
X4.1764Y-4.9213
X4.252Y-5.0724
X4.252Y-5.4724
X4.252Y-5.6055
X4.252Y-5.9055
X4.2764Y-4.6213
X4.2764Y-4.9213
X4.3764Y-4.6213
X4.3764Y-4.9213
X4.4488Y-5.3087
X4.4488Y-5.7087
X4.4764Y-4.6213
X4.4764Y-4.9213
X4.5063Y-2.7441
X4.5063Y-2.9449
X4.5276Y-7.3228
X4.5276Y-7.7228
X4.5764Y-4.6213
X4.5764Y-4.9213
X4.6457Y-5.1181
X4.6457Y-5.5181
X4.6457Y-5.6693
X4.6457Y-6.0693
X4.7559Y-4.1315
X4.7559Y-4.5315
X4.7717Y-4.685
X4.7717Y-4.8819
X4.8976Y-4.0094
X4.8976Y-4.4094
X4.9055Y-4.5591
X4.9055Y-4.9591
X4.9252Y-5.4134
X4.9252Y-5.5118
X4.9291Y-5.9134
X4.9291Y-6.0118
X4.9724Y-5.6772
X4.9724Y-5.7756
X4.9764Y-5.1142
X4.9764Y-5.2126
X5.0394Y-4.0094
X5.0394Y-4.4094
X5.0394Y-4.5669
X5.0394Y-4.7638
T5
X4.8425Y-2.8283
X4.8425Y-2.9283
X4.8425Y-3.0283
X4.8425Y-3.1283
X4.8425Y-3.2283
X4.9425Y-2.8283
X4.9425Y-2.9283
X4.9425Y-3.0283
X4.9425Y-3.1283
X4.9425Y-3.2283
T6
X4.8819Y-6.2598
X4.8819Y-6.6535
X4.9819Y-6.2598
X4.9819Y-6.6535
T7
X4.0157Y-4.0551
X4.0157Y-7.0079
X4.2126Y-4.0551
X4.2126Y-7.0079
X4.4094Y-4.0551
X4.4094Y-7.0079
X4.7087Y-7.3898
X4.7087Y-7.5866
X4.9055Y-7.4882
T9
X4.2126Y-3.5827
X4.2126Y-6.5354
T10
X3.6614Y-8.2283
X4.7638Y-8.2283
T8
G00X3.3476Y-1.5733
M15
G01X3.4578Y-1.5733
M16
G05
G00X3.3476Y-9.2111
M15
G01X3.4578Y-9.2111
M16
G05
G00X4.9681Y-1.5734
M15
G01X5.0783Y-1.5734
M16
G05
G00X4.9681Y-9.2111
M15
G01X5.0783Y-9.2111
M16
G05
T0
M30
