M48
; DRILL file {KiCad 5.1.9-73d0e3b20d~88~ubuntu20.10.1} date Wed Feb 17 22:55:36 2021
; FORMAT={-:-/ absolute / inch / decimal}
; #@! TF.CreationDate,2021-02-17T22:55:36+01:00
; #@! TF.GenerationSoftware,Kicad,Pcbnew,5.1.9-73d0e3b20d~88~ubuntu20.10.1
FMAT,2
INCH
T1C0.0157
T2C0.0300
T3C0.0315
T4C0.0394
T5C0.0469
T6C0.0512
T7C0.1260
T8C0.2559
T9C0.3937
T10C0.0394
%
G90
G05
T1
X0.5906Y4.2913
X1.3386Y4.9213
X1.5354Y3.5827
T2
X0.2839Y1.488
X0.3839Y1.488
X0.4839Y1.488
X0.5839Y1.488
X1.3862Y1.488
X1.4862Y1.488
X1.5862Y1.488
X1.6862Y1.488
T3
X0.1575Y5.4
X0.1575Y5.0
X0.1575Y4.8882
X0.1575Y4.4882
X0.1772Y3.3071
X0.1969Y3.9827
X0.1969Y3.5827
X0.2165Y6.2992
X0.2756Y3.3071
X0.2756Y2.0142
X0.2756Y1.6142
X0.315Y6.2992
X0.3543Y5.0394
X0.3543Y4.8425
X0.3543Y4.685
X0.3543Y4.285
X0.3543Y4.0551
X0.4134Y6.4961
X0.4331Y3.8189
X0.4331Y3.5189
X0.4543Y4.0551
X0.4724Y2.1323
X0.4724Y1.7323
X0.5118Y6.4961
X0.5478Y4.6639
X0.5478Y4.4671
X0.5543Y4.0551
X0.6299Y3.7858
X0.6299Y3.3858
X0.6693Y3.9764
X0.748Y4.7094
X0.748Y4.4094
X0.7693Y3.9764
X0.8268Y3.6614
X0.8268Y3.2614
X0.848Y4.7094
X0.848Y4.4094
X0.8661Y6.6142
X0.8661Y6.4173
X0.8693Y3.9764
X0.948Y4.7094
X0.948Y4.4094
X1.0236Y4.2583
X1.0236Y3.8583
X1.0236Y3.7252
X1.0236Y3.4252
X1.048Y4.7094
X1.048Y4.4094
X1.148Y4.7094
X1.148Y4.4094
X1.2205Y4.022
X1.2205Y3.622
X1.248Y4.7094
X1.248Y4.4094
X1.2661Y6.6142
X1.2661Y6.4173
X1.2992Y2.0079
X1.2992Y1.6079
X1.348Y4.7094
X1.348Y4.4094
X1.4173Y4.2126
X1.4173Y3.8126
X1.4173Y3.6614
X1.4173Y3.2614
X1.4961Y2.126
X1.4961Y1.726
X1.6142Y5.1969
X1.6142Y4.7969
X1.6142Y4.6457
X1.6142Y4.4488
X1.6929Y3.9961
X1.6929Y3.8976
X1.6929Y3.4843
X1.6929Y3.3858
X1.7323Y4.252
X1.7323Y4.1535
X1.7323Y3.7402
X1.7323Y3.6417
X1.811Y5.3213
X1.811Y4.9213
X1.811Y4.7638
X1.811Y4.5669
T4
X1.6142Y6.5024
X1.6142Y6.4024
X1.6142Y6.3024
X1.6142Y6.2024
X1.6142Y6.1024
X1.7142Y6.5024
X1.7142Y6.4024
X1.7142Y6.3024
X1.7142Y6.2024
X1.7142Y6.1024
T5
X1.6535Y3.0709
X1.6535Y2.6772
X1.7535Y3.0709
X1.7535Y2.6772
T6
X0.7874Y5.2756
X0.7874Y2.3228
X0.9843Y5.2756
X0.9843Y2.3228
X1.1811Y5.2756
X1.1811Y2.3228
T8
X0.9843Y5.748
X0.9843Y2.7953
T9
X0.4331Y1.1024
X1.5354Y1.1024
T7
G00X0.1192Y7.7574
M15
G01X0.2295Y7.7574
M16
G05
G00X0.1192Y0.1196
M15
G01X0.2295Y0.1196
M16
G05
G00X1.7397Y7.7574
M15
G01X1.85Y7.7574
M16
G05
G00X1.7397Y0.1196
M15
G01X1.85Y0.1196
M16
G05
T10
G00X0.689Y5.7638
M15
G01X0.689Y5.7244
M16
G05
G00X0.689Y2.811
M15
G01X0.689Y2.7717
M16
G05
T0
M30
